<svg width="693" height="465" viewBox="0 0 693 465" fill="none" xmlns="http://www.w3.org/2000/svg">
<g clip-path="url(#clip0_64_373)">
<path d="M132.716 233.571C135.031 232.169 137.504 231.098 140.055 230.374L141.567 223.099L153.853 222.878L155.617 230.091C158.184 230.721 160.705 231.697 163.067 233.02L169.273 228.957L178.109 237.492L174.266 243.838C175.668 246.153 176.739 248.626 177.463 251.177L184.724 252.689L184.945 264.972L177.731 266.736C177.101 269.303 176.125 271.822 174.801 274.184L178.865 280.389L170.328 289.223L163.981 285.381C161.665 286.783 159.192 287.853 156.641 288.578L155.129 295.838L142.843 296.058L141.079 288.845C138.512 288.216 135.992 287.239 133.629 285.916L127.423 289.979L118.587 281.444L122.43 275.098C121.029 272.783 119.957 270.31 119.233 267.759L111.972 266.247L111.751 253.964L118.965 252.2C119.595 249.634 120.572 247.114 121.895 244.752L117.831 238.547L126.368 229.713L132.716 233.571ZM139.252 249.933C134.196 255.161 134.338 263.507 139.583 268.562C144.812 273.617 153.16 273.476 158.216 268.232C163.272 263.003 163.13 254.657 157.885 249.602C152.656 244.547 144.308 244.705 139.252 249.933Z" fill="#E0E0E0"/>
<path d="M139.252 249.933C139.252 249.933 139.945 248.956 141.709 247.775C143.442 246.626 146.466 245.334 150.309 245.744C152.199 245.949 154.263 246.579 156.153 247.823C158.011 249.067 159.775 250.846 160.878 253.145C161.461 254.279 161.854 255.539 162.075 256.846C162.311 258.153 162.343 259.539 162.154 260.909C161.823 263.665 160.516 266.373 158.5 268.499C156.436 270.594 153.774 271.995 151.034 272.421C149.663 272.673 148.293 272.673 146.97 272.484C145.647 272.31 144.387 271.948 143.237 271.413C140.89 270.389 139.063 268.704 137.756 266.877C136.449 265.035 135.755 262.988 135.472 261.114C134.936 257.287 136.102 254.216 137.205 252.452C138.307 250.657 139.252 249.933 139.252 249.933C139.331 249.996 138.449 250.799 137.441 252.61C136.449 254.389 135.393 257.381 135.992 261.051C136.291 262.846 136.984 264.799 138.26 266.531C139.536 268.247 141.3 269.854 143.521 270.799C144.607 271.303 145.82 271.633 147.065 271.791C148.309 271.964 149.616 271.948 150.908 271.712C153.491 271.302 156.011 269.98 157.948 267.995C159.854 265.98 161.098 263.429 161.413 260.83C161.602 259.539 161.587 258.232 161.366 256.988C161.161 255.744 160.799 254.547 160.248 253.476C159.224 251.287 157.57 249.586 155.806 248.374C154.026 247.161 152.057 246.547 150.246 246.311C146.576 245.854 143.615 247.004 141.867 248.059C140.087 249.114 139.315 249.996 139.252 249.933Z" fill="#E0E0E0"/>
<path d="M132.716 233.571C132.716 233.587 132.574 233.508 132.306 233.35C132.007 233.177 131.613 232.941 131.093 232.642C129.991 231.98 128.384 231.035 126.305 229.823L126.447 229.807C124.273 232.075 121.422 235.067 117.973 238.689L117.989 238.453C119.233 240.327 120.603 242.405 122.084 244.642L122.163 244.752L122.1 244.878C120.887 247.067 119.879 249.555 119.217 252.279L119.186 252.421L119.044 252.452C116.792 253.004 114.366 253.618 111.846 254.248L112.051 253.98C112.129 257.838 112.208 261.948 112.287 266.263L112.051 265.98C114.303 266.436 116.776 266.956 119.327 267.476L119.516 267.507L119.564 267.696C120.241 270.074 121.296 272.594 122.73 274.956L122.84 275.129L122.745 275.302C121.548 277.271 120.241 279.444 118.902 281.649L118.855 281.239C121.627 283.916 124.635 286.798 127.707 289.759L127.266 289.712C129.203 288.436 131.314 287.05 133.472 285.633L133.661 285.507L133.85 285.617C136.023 286.83 138.543 287.853 141.221 288.515L141.441 288.562L141.489 288.783C142.04 291.034 142.654 293.507 143.269 295.995L142.906 295.712C146.797 295.649 150.955 295.57 155.192 295.491L154.83 295.79C155.302 293.491 155.822 291.019 156.342 288.531L156.389 288.31L156.609 288.247C159.035 287.57 161.539 286.499 163.855 285.098L164.06 284.987L164.249 285.098C166.375 286.389 168.501 287.68 170.596 288.94L170.124 289.003C173.006 286.011 175.857 283.066 178.66 280.168L178.613 280.641C177.243 278.546 175.888 276.484 174.549 274.436L174.423 274.247L174.534 274.058C175.841 271.728 176.802 269.24 177.432 266.704L177.479 266.484L177.7 266.436C180.141 265.838 182.535 265.255 184.913 264.673L184.646 265.035C184.583 260.846 184.504 256.752 184.441 252.752L184.724 253.082C182.252 252.563 179.842 252.059 177.463 251.555L177.259 251.508L177.196 251.303C176.455 248.704 175.384 246.248 174.045 244.043L173.935 243.87L174.045 243.697C175.369 241.523 176.644 239.413 177.904 237.366L177.952 237.76C174.849 234.752 171.919 231.917 169.131 229.209L169.494 229.24C167.304 230.658 165.257 231.996 163.272 233.287L163.13 233.382L162.988 233.303C160.516 231.917 158.043 230.988 155.617 230.374L155.475 230.343L155.444 230.201C154.814 227.571 154.247 225.225 153.696 222.988L153.916 223.162C149.159 223.225 145.111 223.272 141.63 223.319L141.788 223.177C141.158 226.075 140.654 228.453 140.229 230.437L140.213 230.516L140.15 230.532C137.551 231.256 135.724 232.106 134.527 232.689C133.96 232.988 133.519 233.209 133.204 233.382C132.842 233.524 132.716 233.587 132.716 233.571C132.716 233.555 132.857 233.461 133.125 233.287C133.409 233.114 133.834 232.862 134.417 232.547C135.598 231.917 137.409 231.035 140.024 230.264L139.945 230.358C140.339 228.374 140.827 225.98 141.41 223.083L141.441 222.957H141.583C145.048 222.878 149.112 222.799 153.869 222.689H154.042L154.089 222.862C154.641 225.083 155.223 227.445 155.885 230.059L155.696 229.87C158.169 230.469 160.689 231.413 163.225 232.799L162.941 232.815C164.91 231.508 166.958 230.169 169.131 228.736L169.32 228.61L169.494 228.768C172.297 231.461 175.227 234.279 178.345 237.287L178.519 237.461L178.393 237.681C177.148 239.744 175.873 241.854 174.549 244.027V243.697C175.92 245.964 177.022 248.452 177.794 251.114L177.542 250.878C179.92 251.366 182.346 251.87 184.819 252.374L185.087 252.437V252.72C185.165 256.72 185.244 260.799 185.307 265.003V265.287L185.024 265.35C182.645 265.933 180.251 266.531 177.81 267.129L178.078 266.862C177.432 269.46 176.455 272.011 175.117 274.405L175.101 274.027C176.44 276.074 177.794 278.137 179.164 280.231L179.322 280.483L179.117 280.704C176.314 283.601 173.463 286.562 170.596 289.538L170.391 289.759L170.139 289.601C168.044 288.326 165.918 287.05 163.792 285.759H164.186C161.807 287.208 159.24 288.279 156.751 288.987L157.019 288.704C156.499 291.192 155.979 293.68 155.507 295.963L155.444 296.263H155.145C150.923 296.341 146.749 296.404 142.859 296.467H142.56L142.497 296.184C141.883 293.696 141.284 291.239 140.733 288.971L141 289.239C138.276 288.562 135.677 287.507 133.456 286.263L133.834 286.247C131.676 287.649 129.55 289.05 127.628 290.31L127.392 290.468L127.187 290.279C124.116 287.318 121.139 284.42 118.367 281.743L118.178 281.554L118.319 281.318C119.658 279.113 120.981 276.94 122.178 274.987V275.318C120.714 272.893 119.642 270.31 118.965 267.885L119.201 268.106C116.666 267.57 114.193 267.051 111.94 266.578L111.704 266.531V266.295C111.641 261.98 111.578 257.885 111.515 254.011V253.791L111.72 253.744C114.256 253.13 116.681 252.547 118.934 251.996L118.745 252.185C119.438 249.413 120.477 246.893 121.722 244.689L121.737 244.925C120.288 242.689 118.918 240.594 117.689 238.705L117.611 238.579L117.721 238.468C121.218 234.894 124.1 231.933 126.305 229.681L126.368 229.618L126.447 229.665C128.479 230.925 130.038 231.902 131.125 232.579C131.645 232.909 132.038 233.161 132.322 233.335C132.574 233.476 132.716 233.571 132.716 233.571Z" fill="#E0E0E0"/>
<path d="M493.265 320.735C494.651 319.9 496.132 319.254 497.66 318.829L498.558 314.483L505.913 314.357L506.968 318.672C508.512 319.05 510.008 319.632 511.426 320.42L515.143 317.979L520.435 323.081L518.136 326.876C518.971 328.262 519.616 329.742 520.042 331.27L524.389 332.168L524.515 339.522L520.199 340.577C519.821 342.12 519.238 343.616 518.451 345.034L520.892 348.75L515.789 354.041L511.993 351.742C510.607 352.577 509.126 353.222 507.599 353.648L506.685 357.994L499.329 358.12L498.274 353.805C496.731 353.427 495.234 352.844 493.817 352.057L490.099 354.498L484.807 349.396L487.107 345.6C486.272 344.215 485.626 342.734 485.201 341.207L480.854 340.309L480.728 332.955L485.044 331.9C485.422 330.357 486.004 328.861 486.792 327.443L484.35 323.727L489.454 318.436L493.265 320.735ZM497.187 330.53C494.163 333.664 494.242 338.656 497.376 341.679C500.511 344.703 505.504 344.624 508.528 341.49C511.552 338.356 511.473 333.364 508.339 330.341C505.204 327.317 500.211 327.396 497.187 330.53Z" fill="#F5F5F5"/>
<path d="M497.187 330.53C497.187 330.53 497.597 329.947 498.652 329.239C499.692 328.546 501.503 327.774 503.803 328.026C504.937 328.152 506.165 328.514 507.299 329.27C508.418 330.01 509.473 331.081 510.134 332.451C510.481 333.128 510.717 333.884 510.859 334.672C511.001 335.459 511.016 336.278 510.906 337.097C510.701 338.75 509.93 340.372 508.717 341.648C507.488 342.908 505.882 343.742 504.244 343.994C503.425 344.136 502.606 344.152 501.818 344.041C501.03 343.931 500.274 343.726 499.581 343.396C498.18 342.782 497.077 341.774 496.289 340.687C495.502 339.585 495.092 338.356 494.919 337.238C494.588 334.955 495.297 333.112 495.959 332.057C496.62 330.971 497.187 330.53 497.187 330.53C497.235 330.561 496.715 331.05 496.1 332.136C495.502 333.207 494.872 335.002 495.234 337.191C495.407 338.262 495.833 339.427 496.589 340.467C497.345 341.49 498.4 342.451 499.739 343.018C500.4 343.317 501.109 343.522 501.865 343.616C502.606 343.726 503.393 343.711 504.165 343.569C505.708 343.317 507.22 342.53 508.386 341.349C509.536 340.136 510.26 338.608 510.465 337.049C510.575 336.278 510.56 335.49 510.434 334.75C510.308 334.01 510.087 333.286 509.772 332.656C509.158 331.349 508.166 330.325 507.11 329.601C506.039 328.876 504.874 328.498 503.787 328.357C501.582 328.089 499.818 328.766 498.778 329.412C497.676 330.042 497.219 330.577 497.187 330.53Z" fill="#F5F5F5"/>
<path d="M493.265 320.735C493.265 320.735 493.187 320.703 493.013 320.609C492.84 320.498 492.588 320.373 492.289 320.184C491.627 319.79 490.666 319.223 489.422 318.499L489.517 318.483C488.209 319.837 486.508 321.632 484.445 323.806L484.461 323.664C485.201 324.782 486.036 326.042 486.918 327.365L486.965 327.428L486.933 327.491C486.209 328.798 485.61 330.294 485.201 331.916L485.185 332.01L485.091 332.026C483.752 332.357 482.287 332.719 480.775 333.097L480.901 332.939C480.948 335.254 480.995 337.711 481.043 340.293L480.901 340.12C482.256 340.404 483.736 340.703 485.248 341.018L485.358 341.034L485.39 341.144C485.799 342.561 486.429 344.073 487.28 345.49L487.343 345.585L487.28 345.679C486.571 346.86 485.784 348.152 484.98 349.474L484.949 349.222C486.618 350.829 488.398 352.545 490.241 354.325L489.973 354.293C491.123 353.537 492.399 352.703 493.691 351.852L493.801 351.774L493.911 351.837C495.203 352.561 496.73 353.175 498.321 353.569L498.447 353.6L498.479 353.726C498.81 355.081 499.172 356.545 499.534 358.041L499.314 357.868C501.645 357.821 504.133 357.789 506.669 357.742L506.449 357.915C506.732 356.545 507.047 355.065 507.346 353.569L507.378 353.427L507.504 353.396C508.953 352.986 510.449 352.356 511.835 351.506L511.961 351.443L512.072 351.506C513.347 352.278 514.607 353.049 515.868 353.805L515.584 353.837C517.317 352.057 519.018 350.293 520.687 348.545L520.656 348.829C519.837 347.585 519.018 346.341 518.23 345.112L518.151 345.002L518.214 344.892C519.002 343.49 519.569 342.01 519.947 340.482L519.978 340.356L520.104 340.325C521.569 339.963 523.003 339.616 524.42 339.27L524.263 339.49C524.215 336.986 524.184 334.53 524.137 332.136L524.31 332.341C522.829 332.026 521.38 331.727 519.963 331.427L519.837 331.396L519.805 331.286C519.364 329.727 518.718 328.262 517.915 326.939L517.852 326.845L517.915 326.75C518.703 325.443 519.474 324.183 520.23 322.955L520.262 323.191C518.403 321.396 516.655 319.695 514.985 318.073L515.206 318.089C513.899 318.939 512.67 319.743 511.489 320.514L511.41 320.561L511.331 320.514C509.851 319.68 508.37 319.128 506.921 318.766L506.827 318.751L506.811 318.656C506.433 317.081 506.086 315.68 505.771 314.341L505.897 314.436C503.046 314.467 500.621 314.499 498.542 314.53L498.636 314.451C498.258 316.184 497.959 317.617 497.707 318.798L497.723 318.892L497.675 318.908C496.116 319.349 495.029 319.853 494.321 320.199C493.974 320.373 493.722 320.514 493.533 320.609C493.344 320.703 493.265 320.75 493.265 320.735C493.265 320.735 493.344 320.672 493.517 320.561C493.691 320.451 493.943 320.31 494.289 320.121C494.998 319.743 496.085 319.207 497.644 318.751L497.597 318.798C497.833 317.617 498.116 316.184 498.479 314.436L498.494 314.357H498.573C500.652 314.31 503.078 314.262 505.929 314.199H506.039L506.071 314.31C506.401 315.648 506.748 317.05 507.142 318.625L507.031 318.514C508.512 318.876 510.024 319.443 511.536 320.278H511.363C512.544 319.506 513.773 318.688 515.08 317.837L515.19 317.758L515.285 317.853C516.954 319.459 518.718 321.16 520.577 322.955L520.687 323.065L520.608 323.191C519.868 324.42 519.096 325.695 518.309 326.987V326.782C519.128 328.136 519.789 329.632 520.246 331.223L520.089 331.081C521.506 331.38 522.971 331.679 524.436 331.979L524.593 332.01V332.183C524.641 334.577 524.688 337.018 524.735 339.538V339.711L524.562 339.758C523.144 340.104 521.711 340.467 520.246 340.813L520.404 340.656C520.026 342.215 519.427 343.742 518.624 345.175L518.608 344.939C519.411 346.167 520.23 347.396 521.05 348.655L521.144 348.797L521.018 348.923C519.333 350.655 517.632 352.419 515.915 354.214L515.789 354.34L515.631 354.246C514.371 353.49 513.111 352.718 511.835 351.947H512.072C510.638 352.813 509.11 353.459 507.63 353.884L507.787 353.711C507.472 355.207 507.173 356.687 506.874 358.057L506.842 358.23H506.669C504.133 358.277 501.645 358.309 499.314 358.356H499.14L499.093 358.183C498.731 356.687 498.369 355.222 498.038 353.868L498.195 354.025C496.557 353.616 495.014 352.986 493.691 352.246L493.911 352.23C492.619 353.065 491.344 353.9 490.194 354.655L490.052 354.75L489.926 354.64C488.099 352.86 486.303 351.128 484.65 349.522L484.539 349.411L484.618 349.27C485.421 347.947 486.209 346.656 486.933 345.474V345.679C486.051 344.23 485.421 342.687 485.012 341.238L485.154 341.364C483.626 341.049 482.145 340.734 480.806 340.451L480.665 340.419V340.278C480.633 337.695 480.586 335.238 480.554 332.923V332.798L480.68 332.766C482.192 332.404 483.657 332.042 484.996 331.727L484.886 331.837C485.295 330.183 485.925 328.672 486.666 327.349V327.491C485.799 326.152 484.98 324.892 484.24 323.758L484.193 323.68L484.256 323.617C486.351 321.475 488.083 319.711 489.391 318.357L489.438 318.31L489.485 318.341C490.698 319.097 491.627 319.68 492.289 320.089C492.588 320.278 492.824 320.436 493.013 320.546C493.171 320.672 493.265 320.735 493.265 320.735Z" fill="#F5F5F5"/>
<path d="M550.976 50.881C552.771 49.7944 554.677 48.9756 556.63 48.4244L557.796 42.8182L567.262 42.645L568.616 48.2039C570.601 48.6921 572.538 49.448 574.365 50.4559L579.154 47.322L585.958 53.8889L582.997 58.7707C584.084 60.5659 584.903 62.4714 585.454 64.4241L591.061 65.5895L591.234 75.0539L585.674 76.4239C585.186 78.4081 584.43 80.3451 583.422 82.1718L586.557 86.9592L579.988 93.7622L575.106 90.8016C573.31 91.8882 571.404 92.7071 569.451 93.2583L568.286 98.8645L558.82 99.0377L557.465 93.4787C555.48 92.9906 553.543 92.2347 551.716 91.2268L546.928 94.3606L540.123 87.7938L543.085 82.912C541.998 81.1167 541.179 79.2113 540.627 77.2585L535.02 76.0932L534.847 66.6288L540.407 65.2587C540.895 63.2745 541.651 61.3376 542.659 59.5108L539.525 54.7235L546.093 47.9205L550.976 50.881ZM556.032 63.4793C552.141 67.5107 552.251 73.9358 556.284 77.8412C560.316 81.7309 566.742 81.6207 570.648 77.5892C574.539 73.5578 574.428 67.1327 570.396 63.2273C566.348 59.3376 559.922 59.4478 556.032 63.4793Z" fill="#F5F5F5"/>
<path d="M556.032 63.4793C556.032 63.4793 556.567 62.7234 557.922 61.8257C559.261 60.9439 561.592 59.9518 564.553 60.2667C566.002 60.4242 567.608 60.9124 569.058 61.873C570.491 62.8336 571.845 64.2037 572.696 65.9674C573.137 66.8335 573.452 67.8099 573.625 68.8177C573.814 69.8256 573.83 70.8807 573.688 71.9358C573.436 74.0618 572.428 76.1405 570.869 77.794C569.278 79.416 567.23 80.4868 565.12 80.8175C564.065 81.0065 563.009 81.0223 561.985 80.8648C560.962 80.7388 559.985 80.4554 559.103 80.0459C557.292 79.2585 555.89 77.9515 554.882 76.5499C553.874 75.1326 553.338 73.5578 553.118 72.109C552.708 69.1642 553.606 66.802 554.457 65.432C555.291 64.0462 556.032 63.4793 556.032 63.4793C556.079 63.5265 555.417 64.1407 554.63 65.5422C553.858 66.9123 553.055 69.2272 553.512 72.046C553.748 73.4318 554.268 74.9279 555.26 76.2664C556.236 77.5893 557.591 78.8176 559.308 79.5577C560.158 79.9514 561.088 80.2034 562.048 80.3136C563.009 80.4553 564.017 80.4396 565.01 80.2506C567.01 79.9357 568.932 78.9121 570.444 77.3845C571.908 75.8255 572.869 73.857 573.121 71.8571C573.263 70.865 573.247 69.8571 573.074 68.8965C572.916 67.9359 572.633 67.0225 572.223 66.1879C571.436 64.5029 570.16 63.18 568.806 62.2509C567.435 61.3218 565.923 60.8336 564.521 60.6604C561.686 60.314 559.402 61.1958 558.064 62.0147C556.677 62.8493 556.079 63.5422 556.032 63.4793Z" fill="#F5F5F5"/>
<path d="M550.976 50.881C550.976 50.8968 550.865 50.8338 550.661 50.7078C550.424 50.5818 550.125 50.3929 549.716 50.1724C548.865 49.6685 547.637 48.9441 546.03 47.9992L546.14 47.9834C544.471 49.7314 542.266 52.0464 539.604 54.8337L539.619 54.6447C540.58 56.0935 541.636 57.6998 542.77 59.4163L542.833 59.4951L542.785 59.5895C541.856 61.2746 541.069 63.1958 540.565 65.2902L540.533 65.4005L540.423 65.432C538.69 65.8572 536.816 66.3296 534.863 66.8178L535.02 66.613C535.083 69.5894 535.146 72.7547 535.209 76.0775L535.02 75.857C536.753 76.2192 538.659 76.6129 540.627 77.0066L540.769 77.0381L540.816 77.1798C541.336 79.0065 542.155 80.9435 543.258 82.7703L543.337 82.8962L543.258 83.0222C542.344 84.534 541.336 86.219 540.297 87.9198L540.249 87.6048C542.392 89.6678 544.707 91.8882 547.07 94.1716L546.739 94.1401C548.235 93.1638 549.857 92.0929 551.527 91.0063L551.669 90.9118L551.81 90.9906C553.48 91.9197 555.433 92.7228 557.481 93.211L557.638 93.2583L557.686 93.4315C558.111 95.1637 558.583 97.0692 559.056 98.9905L558.772 98.77C561.765 98.7227 564.978 98.6598 568.238 98.5968L567.955 98.833C568.317 97.0692 568.727 95.148 569.121 93.2268L569.152 93.0535L569.325 93.0063C571.184 92.4866 573.121 91.6677 574.917 90.5812L575.074 90.4867L575.216 90.5812C576.854 91.5733 578.492 92.5654 580.099 93.5417L579.737 93.589C581.957 91.2898 584.147 89.0221 586.32 86.7859L586.289 87.1481C585.234 85.5419 584.194 83.9356 583.154 82.3608L583.06 82.2191L583.139 82.0616C584.147 80.2664 584.887 78.3451 585.375 76.3924L585.423 76.2192L585.596 76.1719C587.47 75.7153 589.329 75.2586 591.156 74.8176L590.951 75.0853C590.904 71.8571 590.841 68.6918 590.794 65.6209L591.014 65.8729C589.108 65.4792 587.25 65.0855 585.407 64.7076L585.249 64.6761L585.202 64.5186C584.635 62.5186 583.8 60.6289 582.776 58.9124L582.698 58.7864L582.776 58.6604C583.8 56.9912 584.777 55.3691 585.753 53.7786L585.785 54.0778C583.391 51.7629 581.138 49.574 578.98 47.4953L579.264 47.5268C577.579 48.6291 576.004 49.6527 574.476 50.6448L574.366 50.7078L574.255 50.6448C572.349 49.574 570.444 48.8653 568.569 48.3929L568.459 48.3614L568.428 48.2512C567.939 46.2354 567.498 44.4087 567.089 42.6922L567.262 42.8182C563.592 42.8654 560.473 42.9127 557.796 42.9442L557.922 42.8339C557.449 45.0701 557.055 46.8968 556.725 48.4244L556.709 48.4874L556.662 48.5031C554.661 49.0543 553.244 49.7157 552.33 50.1724C551.889 50.4086 551.558 50.5818 551.306 50.7078C551.086 50.8338 550.976 50.881 550.976 50.881C550.976 50.881 551.086 50.8023 551.291 50.6606C551.511 50.5346 551.842 50.3299 552.283 50.0936C553.181 49.6055 554.598 48.9283 556.599 48.3299L556.536 48.3929C556.851 46.8654 557.213 45.0229 557.67 42.7867L557.686 42.6922H557.796C560.473 42.6292 563.592 42.5662 567.262 42.4875H567.404L567.435 42.6292C567.86 44.3457 568.317 46.1567 568.821 48.1724L568.679 48.0307C570.585 48.4874 572.538 49.2118 574.476 50.2984H574.255C575.783 49.2905 577.358 48.2512 579.028 47.1488L579.169 47.0543L579.296 47.1803C581.453 49.259 583.721 51.4322 586.116 53.7471L586.257 53.8889L586.163 54.0621C585.202 55.6526 584.225 57.2746 583.202 58.9596V58.6919C584.257 60.4399 585.108 62.3612 585.69 64.4084L585.486 64.2194C587.313 64.5973 589.187 64.991 591.093 65.3847L591.298 65.432V65.6524C591.361 68.7232 591.408 71.8886 591.471 75.1168V75.3373L591.25 75.3846C589.423 75.8412 587.58 76.2822 585.69 76.7546L585.895 76.5499C585.407 78.5499 584.635 80.5183 583.611 82.3608L583.595 82.0616C584.635 83.6364 585.675 85.2269 586.73 86.8489L586.856 87.0379L586.698 87.2111C584.54 89.4473 582.351 91.715 580.13 94.0142L579.973 94.1874L579.768 94.0614C578.146 93.085 576.523 92.0929 574.885 91.1008H575.185C573.342 92.2189 571.373 93.0535 569.451 93.589L569.656 93.3685C569.262 95.2897 568.853 97.1952 568.49 98.9747L568.443 99.1952H568.207C564.947 99.2582 561.733 99.3054 558.741 99.3527H558.52L558.473 99.1322C558.001 97.211 557.544 95.3212 557.118 93.5732L557.323 93.7779C555.213 93.2583 553.228 92.4394 551.511 91.4945L551.795 91.4788C550.141 92.5654 548.503 93.6362 547.007 94.6126L546.818 94.7386L546.66 94.5811C544.297 92.2977 541.998 90.0615 539.856 87.9985L539.714 87.8568L539.824 87.6836C540.864 85.9828 541.872 84.3135 542.801 82.8018V83.0537C541.667 81.1797 540.848 79.1955 540.328 77.3373L540.517 77.5105C538.564 77.1011 536.658 76.6916 534.91 76.3294L534.737 76.2979V76.109C534.689 72.7862 534.642 69.6209 534.595 66.6445V66.4713L534.752 66.4398C536.706 65.9674 538.58 65.5107 540.312 65.1013L540.171 65.243C540.706 63.1013 541.51 61.1643 542.47 59.4636V59.6368C541.352 57.9045 540.297 56.2983 539.352 54.8337L539.289 54.7392L539.367 54.6605C542.061 51.9046 544.282 49.6212 545.983 47.889L546.03 47.8417L546.093 47.8732C547.652 48.8496 548.865 49.5897 549.7 50.1094C550.094 50.3614 550.393 50.5503 550.629 50.6921C550.881 50.8023 550.976 50.8653 550.976 50.881Z" fill="#F5F5F5"/>
<path d="M396.477 92.8173C397.863 91.9827 399.344 91.337 400.871 90.9118L401.769 86.5655L409.125 86.4395L410.18 90.7544C411.724 91.1323 413.22 91.715 414.637 92.5024L418.355 90.0615L423.647 95.1637L421.347 98.959C422.182 100.345 422.828 101.825 423.253 103.353L427.6 104.25L427.726 111.604L423.411 112.66C423.033 114.203 422.45 115.699 421.662 117.116L424.104 120.833L419 126.124L415.204 123.825C413.818 124.659 412.338 125.305 410.81 125.73L409.912 130.077L402.557 130.203L401.501 125.888C399.958 125.51 398.461 124.927 397.044 124.14L393.327 126.581L388.035 121.478L390.334 117.683C389.499 116.297 388.854 114.817 388.428 113.289L384.081 112.392L383.955 105.038L388.271 103.982C388.649 102.439 389.232 100.943 390.019 99.5259L387.578 95.8094L392.681 90.5182L396.477 92.8173ZM400.399 102.612C397.375 105.746 397.453 110.738 400.588 113.762C403.722 116.785 408.715 116.707 411.739 113.573C414.763 110.439 414.685 105.447 411.55 102.423C408.416 99.3999 403.423 99.4786 400.399 102.612Z" fill="#F5F5F5"/>
<path d="M400.399 102.612C400.399 102.612 400.808 102.03 401.864 101.321C402.903 100.628 404.715 99.8566 407.014 100.109C408.148 100.235 409.377 100.597 410.511 101.353C411.629 102.093 412.684 103.164 413.346 104.534C413.693 105.211 413.929 105.967 414.071 106.754C414.212 107.542 414.228 108.36 414.118 109.179C413.913 110.833 413.141 112.455 411.928 113.73C410.7 114.99 409.093 115.825 407.455 116.077C406.636 116.219 405.817 116.234 405.03 116.124C404.242 116.014 403.486 115.809 402.793 115.478C401.391 114.864 400.289 113.856 399.501 112.77C398.714 111.667 398.304 110.439 398.131 109.321C397.8 107.038 398.509 105.195 399.17 104.14C399.832 103.053 400.399 102.612 400.399 102.612C400.446 102.644 399.926 103.132 399.312 104.219C398.714 105.29 398.084 107.085 398.446 109.274C398.619 110.345 399.044 111.51 399.8 112.549C400.556 113.573 401.612 114.534 402.951 115.1C403.612 115.4 404.321 115.604 405.077 115.699C405.817 115.809 406.605 115.793 407.377 115.652C408.92 115.4 410.432 114.612 411.598 113.431C412.748 112.219 413.472 110.691 413.677 109.132C413.787 108.36 413.771 107.573 413.645 106.833C413.519 106.093 413.299 105.368 412.984 104.738C412.37 103.431 411.377 102.408 410.322 101.683C409.251 100.959 408.085 100.581 406.998 100.439C404.793 100.172 403.029 100.849 401.99 101.494C400.903 102.124 400.43 102.66 400.399 102.612Z" fill="#F5F5F5"/>
<path d="M396.477 92.8173C396.477 92.8173 396.398 92.7858 396.225 92.6914C396.052 92.5811 395.8 92.4551 395.5 92.2662C394.839 91.8725 393.878 91.3055 392.634 90.5812L392.728 90.5654C391.421 91.9197 389.72 93.715 387.657 95.8881L387.672 95.7464C388.413 96.8645 389.247 98.1086 390.129 99.4471L390.177 99.5101L390.145 99.5731C389.421 100.88 388.822 102.376 388.413 103.998L388.397 104.093L388.302 104.108C386.964 104.439 385.499 104.801 383.987 105.179L384.113 105.022C384.16 107.337 384.207 109.793 384.254 112.376L384.113 112.203C385.467 112.486 386.948 112.785 388.46 113.1L388.57 113.116L388.602 113.226C389.011 114.644 389.641 116.156 390.492 117.573L390.555 117.667L390.492 117.762C389.783 118.943 388.995 120.234 388.192 121.557L388.161 121.305C389.83 122.911 391.61 124.628 393.453 126.407L393.185 126.376C394.335 125.62 395.611 124.785 396.902 123.935L397.012 123.856L397.123 123.919C398.414 124.644 399.942 125.258 401.533 125.651L401.659 125.683L401.69 125.809C402.021 127.163 402.383 128.628 402.746 130.124L402.525 129.951C404.856 129.903 407.345 129.856 409.881 129.825L409.66 129.998C409.944 128.628 410.259 127.147 410.558 125.651L410.59 125.51L410.716 125.478C412.165 125.069 413.661 124.439 415.047 123.588L415.173 123.525L415.283 123.588C416.559 124.36 417.819 125.132 419.079 125.888L418.843 125.982C420.576 124.203 422.277 122.439 423.946 120.691L423.915 120.974C423.096 119.73 422.277 118.486 421.489 117.258L421.41 117.148L421.473 117.037C422.261 115.636 422.828 114.156 423.206 112.628L423.237 112.502L423.363 112.471C424.828 112.108 426.262 111.762 427.679 111.415L427.522 111.636C427.474 109.132 427.443 106.675 427.396 104.282L427.569 104.486C426.088 104.171 424.639 103.872 423.222 103.573L423.096 103.542L423.064 103.431C422.623 101.872 421.977 100.408 421.174 99.0849L421.111 98.9905L421.174 98.896C421.962 97.5889 422.733 96.3291 423.489 95.1008L423.521 95.337C421.662 93.5417 419.914 91.841 418.244 90.219L418.465 90.2347C417.158 91.0851 415.929 91.8882 414.748 92.6599L414.669 92.7071L414.59 92.6599C413.11 91.8252 411.629 91.2741 410.18 90.9119L410.086 90.8961L410.07 90.8016C409.692 89.2268 409.345 87.8253 409.03 86.4867L409.156 86.5812C406.305 86.6127 403.88 86.6442 401.801 86.6757L401.895 86.597C401.517 88.3292 401.218 89.7623 400.966 90.9433L400.95 90.9906L400.903 91.0063C399.344 91.4473 398.257 91.9512 397.548 92.2977C397.201 92.4709 396.949 92.6126 396.76 92.7071C396.556 92.7858 396.477 92.8331 396.477 92.8173C396.477 92.8173 396.556 92.7543 396.729 92.6441C396.902 92.5339 397.154 92.3921 397.501 92.2032C398.21 91.8252 399.296 91.2898 400.856 90.8331L400.808 90.8804C401.045 89.6993 401.328 88.2662 401.69 86.5182L401.706 86.4395H401.785C403.864 86.3922 406.29 86.345 409.141 86.282H409.251L409.282 86.3922C409.613 87.7308 409.96 89.1324 410.353 90.7071L410.243 90.5969C411.724 90.9591 413.236 91.526 414.748 92.3607H414.575C415.756 91.589 416.984 90.7701 418.292 89.9197L418.402 89.841L418.496 89.9355C420.166 91.5418 421.93 93.2425 423.789 95.0378L423.899 95.148L423.82 95.274C423.08 96.5023 422.308 97.7779 421.521 99.0692V98.8645C422.34 100.219 423.001 101.715 423.458 103.305L423.3 103.164C424.718 103.463 426.183 103.762 427.648 104.061L427.805 104.093V104.266C427.852 106.66 427.9 109.101 427.947 111.62V111.793L427.774 111.841C426.356 112.187 424.923 112.549 423.458 112.896L423.615 112.738C423.237 114.297 422.639 115.825 421.836 117.258L421.82 117.022C422.623 118.25 423.442 119.478 424.261 120.738L424.356 120.88L424.23 121.006C422.544 122.738 420.843 124.502 419.126 126.297L419 126.423L418.843 126.329C417.583 125.573 416.323 124.801 415.047 124.029H415.283C413.85 124.896 412.322 125.541 410.842 125.966L410.999 125.793C410.684 127.289 410.385 128.769 410.086 130.14L410.054 130.313H409.881C407.345 130.36 404.856 130.392 402.525 130.439H402.352L402.305 130.266C401.942 128.769 401.58 127.305 401.249 125.951L401.407 126.108C399.769 125.699 398.225 125.069 396.902 124.329L397.123 124.313C395.831 125.147 394.555 125.982 393.406 126.738L393.264 126.833L393.138 126.722C391.311 124.943 389.515 123.211 387.861 121.604L387.751 121.494L387.83 121.352C388.633 120.029 389.421 118.738 390.145 117.557V117.762C389.263 116.313 388.633 114.77 388.224 113.321L388.365 113.447C386.838 113.132 385.357 112.817 384.018 112.534L383.876 112.502V112.36C383.845 109.778 383.798 107.321 383.766 105.006V104.88L383.892 104.849C385.404 104.486 386.869 104.124 388.208 103.809L388.098 103.92C388.507 102.266 389.137 100.754 389.877 99.4314V99.5731C389.011 98.2346 388.192 96.9747 387.452 95.8409L387.405 95.7622L387.468 95.6992C389.562 93.5575 391.295 91.7937 392.602 90.4394L392.65 90.3922L392.697 90.4237C393.91 91.1796 394.839 91.7622 395.5 92.1717C395.8 92.3606 396.036 92.5181 396.225 92.6284C396.398 92.7543 396.477 92.8173 396.477 92.8173Z" fill="#F5F5F5"/>
<path d="M59.5849 222.453C60.971 221.618 62.4516 220.973 63.9794 220.547L64.8772 216.201L72.2328 216.075L73.288 220.39C74.8316 220.768 76.3279 221.351 77.7455 222.138L81.4627 219.697L86.7549 224.799L84.4553 228.595C85.2901 229.98 85.9359 231.461 86.3611 232.988L90.7083 233.886L90.8343 241.24L86.5187 242.295C86.1406 243.838 85.5579 245.334 84.7703 246.752L87.2117 250.468L82.1085 255.759L78.3125 253.46C76.9265 254.295 75.4459 254.941 73.9181 255.366L73.0045 259.712L65.649 259.838L64.5937 255.523C63.0501 255.145 61.5538 254.563 60.1362 253.775L56.419 256.216L51.1268 251.114L53.4264 247.319C52.5916 245.933 51.9458 244.453 51.5206 242.925L47.1734 242.027L47.0474 234.673L51.3631 233.618C51.7411 232.075 52.3239 230.579 53.1114 229.161L50.67 225.445L55.7733 220.154L59.5849 222.453ZM63.5069 232.248C60.4827 235.382 60.5615 240.374 63.6959 243.397C66.8303 246.421 71.8232 246.342 74.8474 243.208C77.8715 240.075 77.7928 235.083 74.6584 232.059C71.524 229.036 66.531 229.114 63.5069 232.248Z" fill="#F5F5F5"/>
<path d="M63.5069 232.248C63.5069 232.248 63.9164 231.665 64.9717 230.957C66.0112 230.264 67.8226 229.492 70.1222 229.744C71.2562 229.87 72.4848 230.232 73.6188 230.988C74.7371 231.728 75.7924 232.799 76.454 234.169C76.8005 234.846 77.0367 235.602 77.1785 236.39C77.3203 237.177 77.336 237.996 77.2257 238.815C77.021 240.468 76.2492 242.09 75.0364 243.366C73.8078 244.626 72.2013 245.46 70.5632 245.712C69.7442 245.854 68.9251 245.87 68.1376 245.76C67.35 245.649 66.594 245.445 65.901 245.114C64.4992 244.5 63.3966 243.492 62.6091 242.405C61.8215 241.303 61.412 240.075 61.2388 238.957C60.9238 236.673 61.6168 234.831 62.2783 233.776C62.9398 232.689 63.5069 232.248 63.5069 232.248C63.5541 232.28 63.0344 232.768 62.4201 233.854C61.8215 234.925 61.1915 236.72 61.5538 238.909C61.727 239.98 62.1523 241.146 62.9083 242.185C63.6644 243.208 64.7197 244.169 66.0585 244.736C66.72 245.035 67.4288 245.24 68.1848 245.334C68.9251 245.445 69.7127 245.429 70.4844 245.287C72.028 245.035 73.5401 244.248 74.7056 243.067C75.8554 241.854 76.58 240.327 76.7847 238.768C76.895 237.996 76.8792 237.209 76.7532 236.468C76.6272 235.728 76.4067 235.004 76.0917 234.374C75.4774 233.067 74.4851 232.043 73.4298 231.319C72.3588 230.595 71.1932 230.217 70.1064 230.075C67.9013 229.807 66.1372 230.484 65.0977 231.13C64.0109 231.76 63.5384 232.295 63.5069 232.248Z" fill="#F5F5F5"/>
<path d="M59.585 222.453C59.585 222.453 59.5062 222.421 59.333 222.327C59.1597 222.217 58.9077 222.091 58.6084 221.902C57.9469 221.508 56.9861 220.941 55.7418 220.217L55.8363 220.201C54.529 221.555 52.8279 223.351 50.7646 225.524L50.7803 225.382C51.5206 226.5 52.3554 227.76 53.2374 229.083L53.2847 229.146L53.2532 229.209C52.5287 230.516 51.9301 232.012 51.5206 233.634L51.5049 233.728L51.4104 233.744C50.0715 234.075 48.6067 234.437 47.0947 234.815L47.2207 234.657C47.2679 236.972 47.3152 239.429 47.3624 242.012L47.2207 241.838C48.5752 242.122 50.0558 242.421 51.5679 242.736L51.6781 242.752L51.7096 242.862C52.1191 244.279 52.7492 245.791 53.5997 247.208L53.6627 247.303L53.5997 247.397C52.8909 248.578 52.1034 249.87 51.3001 251.193L51.2686 250.941C52.9382 252.547 54.718 254.263 56.5608 256.043L56.2931 256.011C57.4429 255.256 58.7187 254.421 60.0102 253.571L60.1205 253.492L60.2308 253.555C61.5223 254.279 63.0501 254.893 64.641 255.287L64.767 255.319L64.7985 255.445C65.1292 256.799 65.4915 258.263 65.8538 259.759L65.6332 259.586C67.9643 259.539 70.453 259.492 72.9888 259.46L72.7683 259.633C73.0518 258.263 73.3668 256.783 73.6661 255.287L73.6976 255.145L73.8236 255.114C75.2727 254.704 76.769 254.074 78.1551 253.224L78.2811 253.161L78.3913 253.224C79.6671 253.996 80.9272 254.767 82.1873 255.523L81.9037 255.555C83.6363 253.775 85.3374 252.011 87.007 250.263L86.9755 250.547C86.1564 249.303 85.3374 248.059 84.5499 246.83L84.4711 246.72L84.5341 246.61C85.3216 245.208 85.8887 243.728 86.2667 242.201L86.2982 242.075L86.4242 242.043C87.889 241.681 89.3223 241.334 90.7399 240.988L90.5824 241.209C90.5351 238.705 90.5036 236.248 90.4564 233.854L90.6296 234.059C89.1491 233.744 87.7 233.445 86.2824 233.146L86.1564 233.114L86.1722 233.067C85.7312 231.508 85.0854 230.043 84.2821 228.721L84.2191 228.626L84.2821 228.532C85.0696 227.224 85.8414 225.965 86.5975 224.736L86.629 224.973C84.7704 223.177 83.022 221.477 81.3525 219.855L81.573 219.87C80.2657 220.721 79.0371 221.524 77.8558 222.295L77.7771 222.343L77.6983 222.295C76.2177 221.461 74.7372 220.91 73.2881 220.547L73.1936 220.532L73.1778 220.437C72.7998 218.862 72.4533 217.461 72.1383 216.122L72.2643 216.217C69.4134 216.248 66.9878 216.28 64.9087 216.311L65.0032 216.233C64.6252 217.965 64.3259 219.398 64.0739 220.579L64.0582 220.626L64.0109 220.642C62.4516 221.083 61.3648 221.587 60.656 221.933C60.3095 222.106 60.0575 222.248 59.8685 222.343C59.6637 222.421 59.585 222.469 59.585 222.453C59.585 222.453 59.6637 222.39 59.837 222.28C60.0102 222.169 60.2623 222.028 60.6088 221.839C61.3176 221.461 62.4044 220.925 63.9637 220.469L63.9164 220.516C64.1527 219.335 64.4362 217.902 64.7985 216.154L64.8142 216.075H64.893C66.9721 216.028 69.3977 215.981 72.2485 215.918H72.3588L72.3903 216.028C72.7211 217.366 73.0676 218.768 73.4614 220.343L73.3511 220.232C74.8317 220.595 76.3437 221.162 77.8558 221.996H77.6825C78.8638 221.225 80.0924 220.406 81.3997 219.555L81.51 219.477L81.6045 219.571C83.2741 221.177 85.0381 222.878 86.8967 224.673L87.007 224.784L86.9282 224.91C86.1879 226.138 85.4161 227.413 84.6286 228.705V228.5C85.4476 229.854 86.1092 231.35 86.5659 232.941L86.4084 232.799C87.826 233.098 89.2908 233.398 90.7556 233.697L90.9131 233.728V233.902C90.9604 236.295 91.0077 238.736 91.0549 241.256V241.429L90.8816 241.476C89.4641 241.823 88.0308 242.185 86.5659 242.531L86.7235 242.374C86.3454 243.933 85.7469 245.46 84.9436 246.893L84.9279 246.657C85.7312 247.886 86.5502 249.114 87.3692 250.374L87.4637 250.515L87.3377 250.641C85.6524 252.374 83.9513 254.137 82.2345 255.933L82.1085 256.059L81.951 255.964C80.6909 255.208 79.4309 254.437 78.1551 253.665H78.3913C76.958 254.531 75.4302 255.177 73.9496 255.602L74.1071 255.429C73.7921 256.925 73.4929 258.405 73.1936 259.775L73.1621 259.948H72.9888C70.453 259.996 67.9643 260.027 65.6332 260.074H65.46L65.4127 259.901C65.0505 258.405 64.6882 256.941 64.3574 255.586L64.5149 255.744C62.8769 255.334 61.3333 254.704 60.0102 253.964L60.2308 253.948C58.9392 254.799 57.6634 255.618 56.5136 256.374L56.3718 256.468L56.2458 256.358C54.4187 254.578 52.6232 252.846 50.9693 251.24L50.8591 251.13L50.9378 250.988C51.7411 249.665 52.5287 248.374 53.2532 247.193V247.397C52.3711 245.949 51.7411 244.405 51.3316 242.957L51.4734 243.082C49.9455 242.768 48.465 242.453 47.1262 242.169L46.9844 242.138V241.996C46.9371 239.413 46.9056 236.957 46.8741 234.642V234.516L47.0002 234.484C48.5122 234.122 49.977 233.76 51.3158 233.445L51.2056 233.555C51.6151 231.902 52.2451 230.39 52.9854 229.067V229.209C52.1191 227.87 51.3001 226.61 50.5598 225.476L50.5126 225.398L50.5756 225.335C52.6704 223.193 54.403 221.429 55.7103 220.075L55.7576 220.028L55.8048 220.059C57.0176 220.815 57.9469 221.398 58.6084 221.807C58.9077 221.996 59.1439 222.154 59.333 222.264C59.5062 222.406 59.585 222.453 59.585 222.453Z" fill="#F5F5F5"/>
<path d="M93.953 336.829C98.3632 334.168 103.041 332.152 107.877 330.782L110.743 317.003L134.039 316.593L137.394 330.262C142.276 331.459 147.033 333.317 151.522 335.821L163.288 328.105L180.046 344.278L172.754 356.309C175.416 360.718 177.432 365.411 178.802 370.246L192.584 373.112L192.994 396.403L179.322 399.757C178.125 404.639 176.266 409.395 173.762 413.883L181.48 425.662L165.304 442.418L153.27 435.126C148.86 437.788 144.182 439.804 139.347 441.174L136.48 454.953L113.185 455.362L109.83 441.693C104.947 440.497 100.19 438.638 95.7014 436.134L83.9356 443.851L67.1768 427.678L74.4694 415.647C71.8075 411.237 69.7914 406.56 68.4211 401.725L54.6393 398.859L54.2297 375.568L67.9014 372.214C69.0984 367.332 70.957 362.577 73.4614 358.088L65.7435 346.325L81.9195 329.569L93.953 336.829ZM106.38 367.852C96.7882 377.773 97.0717 393.6 106.995 403.19C116.918 412.78 132.747 412.497 142.339 402.576C151.931 392.655 151.648 376.828 141.725 367.238C131.786 357.647 115.957 357.931 106.38 367.852Z" stroke="#E0E0E0" stroke-width="0.05" stroke-miterlimit="10"/>
<path d="M106.38 367.852C106.38 367.852 107.688 366.01 111.027 363.773C114.319 361.584 120.052 359.144 127.329 359.915C130.92 360.325 134.842 361.49 138.417 363.852C141.961 366.214 145.3 369.584 147.379 373.946C148.482 376.088 149.238 378.466 149.648 380.954C150.104 383.442 150.167 386.041 149.789 388.639C149.159 393.867 146.686 399.001 142.859 403.048C138.953 407.032 133.897 409.678 128.699 410.497C126.116 410.969 123.501 410.985 120.997 410.623C118.493 410.292 116.083 409.615 113.909 408.591C109.468 406.654 105.987 403.442 103.498 399.993C101.009 396.497 99.7021 392.623 99.1823 389.064C98.1585 381.82 100.395 375.994 102.458 372.639C104.585 369.222 106.38 367.852 106.38 367.852C106.522 367.962 104.868 369.49 102.947 372.923C101.072 376.293 99.072 381.978 100.19 388.923C100.757 392.34 102.065 396.025 104.475 399.316C106.884 402.576 110.224 405.599 114.445 407.395C116.524 408.355 118.808 408.969 121.17 409.269C123.533 409.599 126.006 409.568 128.447 409.111C133.361 408.324 138.118 405.804 141.804 402.056C145.426 398.229 147.757 393.395 148.388 388.45C148.75 385.993 148.703 383.521 148.293 381.175C147.915 378.812 147.206 376.561 146.182 374.513C144.245 370.356 141.095 367.128 137.756 364.828C134.369 362.529 130.652 361.364 127.203 360.907C120.225 360.041 114.618 362.23 111.31 364.23C107.955 366.293 106.491 367.994 106.38 367.852Z" fill="#EBEBEB"/>
<path d="M93.953 336.829C93.953 336.845 93.6853 336.719 93.1813 336.42C92.6142 336.089 91.8582 335.648 90.8659 335.081C88.7553 333.837 85.7312 332.042 81.7935 329.727L82.077 329.695C77.9661 334.01 72.5478 339.679 65.9955 346.545L66.0428 346.089C68.3896 349.648 71.0043 353.6 73.8079 357.821L73.9496 358.025L73.8236 358.246C71.5398 362.388 69.6182 367.112 68.3581 372.277L68.2951 372.545L68.0116 372.608C63.7589 373.663 59.144 374.813 54.34 375.994L54.7338 375.49C54.8755 382.828 55.033 390.608 55.1905 398.781L54.7495 398.245C59.018 399.127 63.7274 400.088 68.5471 401.08L68.8937 401.159L68.9882 401.505C70.264 405.993 72.2643 410.78 75.0049 415.269L75.1939 415.584L75.0049 415.899C72.7526 419.631 70.264 423.741 67.7281 427.946L67.6336 427.158C72.9101 432.229 78.5804 437.709 84.4081 443.315L83.5733 443.237C87.2432 440.827 91.2597 438.182 95.3391 435.504L95.6856 435.284L96.0479 435.489C100.159 437.772 104.963 439.741 110.019 440.969L110.428 441.063L110.523 441.473C111.578 445.756 112.728 450.433 113.878 455.142L113.185 454.607C120.556 454.481 128.463 454.339 136.48 454.181L135.803 454.748C136.7 450.402 137.677 445.693 138.669 440.969L138.764 440.544L139.173 440.434C143.757 439.142 148.514 437.127 152.924 434.465H152.939L153.317 434.245L153.68 434.465C157.728 436.922 161.744 439.347 165.713 441.756L164.831 441.867C170.297 436.197 175.699 430.623 181.023 425.111L180.944 425.993C178.345 422.024 175.778 418.103 173.226 414.213L172.99 413.851L173.195 413.473C175.668 409.048 177.511 404.324 178.692 399.521L178.786 399.111L179.196 399.017C183.827 397.883 188.379 396.781 192.868 395.678L192.348 396.356C192.222 388.403 192.08 380.639 191.954 373.065L192.474 373.694C187.796 372.718 183.197 371.758 178.692 370.813L178.314 370.734L178.204 370.356C176.802 365.411 174.77 360.781 172.234 356.577L172.045 356.262L172.234 355.947C174.738 351.821 177.18 347.837 179.558 343.931L179.653 344.671C173.762 338.971 168.218 333.585 162.925 328.451L163.603 328.514C159.46 331.223 155.57 333.758 151.805 336.199L151.538 336.372L151.27 336.215C146.576 333.585 141.882 331.821 137.268 330.656L136.984 330.593L136.921 330.325C135.724 325.349 134.637 320.876 133.613 316.64L134.039 316.955C125.013 317.081 117.327 317.176 110.743 317.254L111.058 317.003C109.877 322.498 108.9 327.018 108.097 330.766L108.066 330.908L107.94 330.939C103.01 332.309 99.5446 333.931 97.2922 335.034C96.2212 335.601 95.3864 336.026 94.7878 336.341C94.2208 336.719 93.953 336.845 93.953 336.829C93.953 336.813 94.2208 336.624 94.7248 336.294C95.2604 335.963 96.0636 335.475 97.1819 334.876C99.4185 333.695 102.868 332.01 107.814 330.546L107.656 330.719C108.412 326.955 109.326 322.436 110.428 316.908L110.476 316.656H110.728C117.311 316.514 124.998 316.341 134.023 316.152H134.354L134.432 316.483C135.488 320.703 136.59 325.176 137.835 330.152L137.488 329.805C142.166 330.955 146.97 332.719 151.758 335.38L151.223 335.396C154.971 332.924 158.846 330.372 162.973 327.648L163.335 327.412L163.65 327.711C168.958 332.813 174.534 338.183 180.44 343.852L180.787 344.183L180.535 344.593C178.172 348.498 175.747 352.514 173.258 356.64V355.994C175.857 360.293 177.952 365.017 179.401 370.072L178.912 369.616C183.433 370.545 188.016 371.506 192.694 372.466L193.214 372.576L193.23 373.112C193.372 380.686 193.513 388.45 193.655 396.403L193.671 396.954L193.135 397.08C188.631 398.182 184.079 399.3 179.464 400.45L179.968 399.946C178.755 404.875 176.881 409.71 174.345 414.245L174.313 413.521C176.865 417.41 179.432 421.331 182.031 425.284L182.346 425.757L181.952 426.166C176.629 431.678 171.242 437.268 165.776 442.922L165.383 443.331L164.894 443.032C160.909 440.622 156.893 438.182 152.861 435.741H153.601H153.585C149.065 438.481 144.198 440.528 139.488 441.867L139.992 441.331C139 446.055 138.024 450.764 137.126 455.11L137.015 455.662L136.448 455.677C128.431 455.819 120.524 455.945 113.153 456.071L112.586 456.087L112.46 455.536C111.31 450.811 110.161 446.15 109.121 441.867L109.625 442.371C104.443 441.095 99.5288 439.079 95.3234 436.733L96.0321 436.701C91.9527 439.378 87.9205 442.008 84.2506 444.402L83.8096 444.701L83.4316 444.323C77.6196 438.701 71.9493 433.205 66.6886 428.119L66.3263 427.757L66.5941 427.316C69.1457 423.127 71.6343 419.017 73.9024 415.3V415.946C71.1303 411.347 69.0984 406.45 67.8069 401.867L68.2479 402.277C63.4282 401.269 58.7345 400.277 54.466 399.379L54.025 399.285V398.828C53.899 390.655 53.7887 382.875 53.6627 375.537V375.128L54.0565 375.033C58.8605 373.868 63.4754 372.75 67.7439 371.726L67.3973 372.072C68.7047 366.813 70.6892 362.041 73.0519 357.852L73.0676 358.293C70.3112 354.041 67.7281 350.073 65.397 346.498L65.2395 346.246L65.4443 346.041C72.0753 339.254 77.5566 333.648 81.7147 329.38L81.8407 329.254L81.9983 329.349C85.8414 331.742 88.8026 333.585 90.8659 334.86C91.8424 335.475 92.5827 335.947 93.1498 336.309C93.701 336.64 93.953 336.813 93.953 336.829Z" fill="#EBEBEB"/>
<path d="M495.612 101.825C499.077 101.888 502.463 102.423 505.708 103.384L512.292 96.5653L525.696 104.691L522.703 113.667C525.05 116.108 527.098 118.864 528.751 121.903L538.218 121.73L541.95 136.943L533.477 141.163C533.414 144.627 532.878 148.013 531.917 151.257L538.737 157.84L530.61 171.241L521.632 168.249C519.191 170.596 516.434 172.643 513.394 174.296L513.552 183.761L498.337 187.493L494.1 179.021C490.635 178.958 487.248 178.422 484.004 177.462L477.42 184.28L464.016 176.155L467.009 167.178C464.662 164.737 462.614 161.982 460.96 158.942L451.494 159.115L447.761 143.903L456.235 139.683C456.298 136.218 456.834 132.832 457.794 129.588L450.974 123.006L459.102 109.604L468.08 112.597C470.521 110.25 473.277 108.219 476.317 106.549L476.144 97.085L491.359 93.3528L495.612 101.825ZM491.532 123.935C482.507 126.14 476.995 135.242 479.2 144.265C481.405 153.289 490.509 158.8 499.534 156.596C508.559 154.391 514.072 145.289 511.867 136.265C509.662 127.242 500.558 121.73 491.532 123.935Z" fill="#E0E0E0"/>
<path d="M491.533 123.935C491.533 123.935 492.934 123.352 495.643 123.273C498.29 123.211 502.432 123.888 506.307 126.927C508.197 128.439 510.008 130.517 511.205 133.147C512.371 135.761 513.064 138.88 512.686 142.108C512.544 143.73 512.119 145.352 511.457 146.911C510.827 148.486 509.914 149.997 508.78 151.336C506.543 154.076 503.298 156.123 499.66 157.037C496.006 157.903 492.178 157.588 488.934 156.186C487.296 155.525 485.799 154.596 484.508 153.493C483.2 152.407 482.082 151.163 481.2 149.793C479.373 147.1 478.538 144.029 478.365 141.163C478.207 138.281 478.853 135.604 479.83 133.384C481.846 128.895 485.201 126.376 487.595 125.21C490.02 124.077 491.533 123.935 491.533 123.935C491.564 124.045 490.084 124.329 487.752 125.588C485.469 126.832 482.303 129.352 480.444 133.699C479.546 135.84 478.963 138.407 479.152 141.147C479.357 143.872 480.176 146.785 481.925 149.32C482.759 150.612 483.846 151.777 485.075 152.801C486.303 153.84 487.721 154.706 489.28 155.32C492.352 156.627 495.959 156.911 499.408 156.108C502.842 155.226 505.913 153.32 508.024 150.738C509.11 149.478 509.977 148.045 510.575 146.564C511.205 145.084 511.615 143.541 511.772 142.013C512.166 138.958 511.536 135.982 510.449 133.478C509.347 130.958 507.646 128.958 505.85 127.462C502.196 124.47 498.211 123.699 495.612 123.651C492.997 123.62 491.548 124.045 491.533 123.935Z" fill="#E0E0E0"/>
<path d="M495.612 101.825C495.612 101.841 495.502 101.668 495.313 101.321C495.108 100.927 494.84 100.408 494.478 99.7306C493.722 98.2661 492.651 96.1559 491.233 93.4315L491.406 93.5102C487.516 94.4866 482.397 95.7779 476.207 97.3212L476.396 97.085C476.459 99.9511 476.522 103.132 476.601 106.549V106.723L476.443 106.801C473.655 108.345 470.868 110.329 468.3 112.833L468.158 112.959L467.969 112.896C465.166 111.967 462.126 110.959 458.976 109.919L459.385 109.778C456.834 113.998 454.124 118.486 451.289 123.195L451.226 122.722C453.337 124.754 455.668 126.99 458.046 129.289L458.22 129.462L458.157 129.699C457.275 132.722 456.692 136.155 456.629 139.683V139.935L456.408 140.045C453.778 141.352 450.896 142.801 447.95 144.281L448.171 143.793C449.352 148.564 450.612 153.73 451.919 159.005L451.478 158.659C454.424 158.612 457.668 158.549 460.945 158.486H461.228L461.354 158.722C462.866 161.493 464.898 164.328 467.339 166.848L467.528 167.052L467.434 167.32C466.489 170.139 465.481 173.21 464.441 176.312L464.236 175.761C468.473 178.328 473.025 181.084 477.64 183.887L477.042 183.965C479.121 181.808 481.357 179.493 483.626 177.147L483.83 176.942L484.114 177.021C487.185 177.934 490.619 178.485 494.068 178.548H494.084L494.383 178.564L494.509 178.816C495.927 181.666 497.344 184.485 498.731 187.288L498.179 187.036C503.33 185.776 508.401 184.532 513.394 183.304L513.032 183.776C512.985 180.595 512.922 177.43 512.875 174.312V174.029L513.127 173.887C516.119 172.249 518.86 170.233 521.27 167.918L521.475 167.729L521.742 167.824C524.782 168.848 527.775 169.84 530.72 170.832L530.185 171.036C532.957 166.47 535.682 161.997 538.328 157.651L538.407 158.202C536.091 155.966 533.823 153.777 531.602 151.619L531.413 151.431L531.492 151.179C532.469 147.872 532.973 144.502 533.051 141.194V140.943L533.272 140.832C536.186 139.383 538.989 137.982 541.746 136.612L541.541 137.069C540.234 131.714 539.005 126.659 537.84 121.84L538.202 122.124C534.878 122.171 531.744 122.218 528.736 122.266H528.531L528.436 122.077C526.704 118.896 524.672 116.203 522.467 113.904L522.341 113.762L522.404 113.589C523.506 110.329 524.499 107.384 525.428 104.612L525.554 104.943C520.372 101.778 515.962 99.0692 512.197 96.7543L512.465 96.7228C509.819 99.4314 507.645 101.652 505.85 103.494L505.787 103.557L505.692 103.526C502.4 102.534 499.849 102.219 498.164 102.03C497.344 101.967 496.73 101.92 496.273 101.872C495.801 101.857 495.596 101.841 495.612 101.825C495.612 101.809 495.832 101.809 496.242 101.809C496.667 101.809 497.297 101.825 498.148 101.888C499.849 102.014 502.416 102.297 505.755 103.242L505.598 103.29C507.378 101.416 509.52 99.1794 512.134 96.4393L512.26 96.3133L512.418 96.4078C516.214 98.6913 520.656 101.353 525.853 104.471L526.042 104.581L525.964 104.801C525.05 107.589 524.073 110.534 522.987 113.793L522.908 113.478C525.16 115.809 527.255 118.533 529.035 121.762L528.72 121.589C531.728 121.526 534.863 121.463 538.186 121.4H538.485L538.548 121.683C539.73 126.486 540.99 131.541 542.313 136.895L542.391 137.21L542.108 137.352C539.367 138.722 536.548 140.139 533.65 141.588L533.886 141.226C533.823 144.596 533.319 148.045 532.327 151.431L532.217 151.005C534.453 153.163 536.721 155.352 539.037 157.572L539.289 157.824L539.1 158.123C536.469 162.485 533.76 166.958 530.988 171.525L530.799 171.84L530.452 171.729C527.491 170.753 524.499 169.745 521.459 168.737L521.931 168.627C519.474 171.005 516.671 173.068 513.599 174.753L513.851 174.328C513.914 177.446 513.961 180.611 514.024 183.792V184.17L513.646 184.265C508.638 185.493 503.566 186.737 498.431 187.997L498.053 188.091L497.88 187.745C496.478 184.942 495.076 182.123 493.643 179.273L494.068 179.54H494.053C490.493 179.477 486.996 178.895 483.846 177.966L484.334 177.84C482.082 180.186 479.83 182.501 477.751 184.658L477.483 184.926L477.152 184.721C472.537 181.918 468.001 179.162 463.748 176.595L463.433 176.406L463.559 176.044C464.599 172.942 465.623 169.871 466.568 167.068L466.678 167.54C464.189 164.958 462.11 162.045 460.567 159.21L460.976 159.446C457.7 159.493 454.455 159.556 451.51 159.604H451.148L451.069 159.257C449.777 153.966 448.517 148.816 447.352 144.029L447.273 143.698L447.588 143.541C450.533 142.076 453.431 140.628 456.062 139.32L455.826 139.683C455.889 136.061 456.503 132.565 457.416 129.478L457.527 129.872C455.148 127.573 452.833 125.321 450.722 123.274L450.502 123.069L450.659 122.817C453.526 118.124 456.251 113.652 458.818 109.431L458.96 109.195L459.212 109.29C462.362 110.345 465.386 111.368 468.19 112.313L467.875 112.392C470.505 109.872 473.356 107.872 476.191 106.329L476.049 106.581C476.002 103.164 475.955 99.9826 475.924 97.1165V96.9275L476.113 96.8803C482.318 95.4 487.453 94.1716 491.359 93.2425L491.485 93.211L491.532 93.3213C492.856 96.0614 493.879 98.1716 494.604 99.6361C494.935 100.329 495.187 100.88 495.376 101.274C495.533 101.62 495.612 101.809 495.612 101.825Z" fill="#E0E0E0"/>
<path d="M539.557 400.277C539.557 400.277 540.974 399.694 543.715 399.615C546.392 399.552 550.566 400.229 554.472 403.3C556.378 404.828 558.221 406.922 559.402 409.568C560.584 412.213 561.277 415.347 560.899 418.607C560.757 420.229 560.332 421.883 559.67 423.457C559.024 425.048 558.127 426.575 556.961 427.93C554.709 430.701 551.433 432.764 547.763 433.693C544.077 434.56 540.218 434.26 536.942 432.843C535.288 432.182 533.776 431.237 532.469 430.134C531.146 429.048 530.012 427.788 529.13 426.402C527.287 423.694 526.452 420.576 526.263 417.694C526.09 414.796 526.751 412.088 527.743 409.851C529.775 405.316 533.177 402.781 535.572 401.6C538.029 400.418 539.557 400.277 539.557 400.277C539.588 400.387 538.092 400.67 535.745 401.946C533.445 403.206 530.232 405.741 528.358 410.135C527.444 412.308 526.861 414.891 527.05 417.662C527.255 420.402 528.074 423.363 529.854 425.914C530.705 427.221 531.791 428.402 533.036 429.426C534.28 430.465 535.713 431.347 537.273 431.977C540.376 433.3 544.014 433.583 547.495 432.764C550.96 431.882 554.063 429.945 556.205 427.331C557.308 426.056 558.174 424.623 558.788 423.111C559.418 421.615 559.843 420.072 559.985 418.528C560.379 415.442 559.733 412.45 558.646 409.914C557.544 407.379 555.827 405.348 554.016 403.851C550.33 400.828 546.314 400.056 543.683 400.009C541.037 399.962 539.572 400.403 539.557 400.277Z" fill="#EBEBEB"/>
<path d="M543.668 377.962C543.668 377.978 543.557 377.805 543.368 377.442C543.164 377.049 542.88 376.529 542.534 375.836C541.777 374.356 540.691 372.23 539.257 369.474L539.431 369.553C535.509 370.545 530.342 371.836 524.089 373.411L524.278 373.175C524.341 376.072 524.404 379.285 524.483 382.734V382.907L524.326 382.986C521.506 384.529 518.703 386.545 516.104 389.064L515.962 389.206L515.773 389.143C512.938 388.214 509.882 387.19 506.701 386.135L507.11 385.993C504.543 390.261 501.802 394.781 498.935 399.537L498.873 399.064C500.999 401.111 503.361 403.379 505.756 405.694L505.929 405.867L505.866 406.103C504.968 409.143 504.385 412.623 504.338 416.182V416.434L504.117 416.544C501.471 417.867 498.542 419.332 495.581 420.828L495.801 420.339C496.982 425.158 498.274 430.371 499.581 435.693L499.14 435.347C502.117 435.3 505.378 435.237 508.701 435.174H508.984L509.126 435.426C510.654 438.229 512.702 441.095 515.159 443.63L515.364 443.835L515.269 444.103C514.324 446.937 513.284 450.04 512.245 453.173L512.04 452.622C516.324 455.221 520.908 457.992 525.57 460.811L524.971 460.89C527.066 458.717 529.334 456.37 531.603 454.008L531.807 453.803L532.091 453.882C535.194 454.795 538.643 455.362 542.14 455.425H542.155L542.455 455.441L542.581 455.709C544.014 458.575 545.432 461.425 546.849 464.26L546.298 464.008C551.496 462.732 556.615 461.488 561.655 460.244L561.293 460.717C561.245 457.504 561.182 454.323 561.135 451.158V450.874L561.387 450.733C564.411 449.079 567.183 447.048 569.593 444.717L569.798 444.512L570.066 444.607C573.137 445.63 576.146 446.638 579.138 447.646L578.603 447.851C581.406 443.237 584.147 438.733 586.825 434.339L586.903 434.89C584.572 432.638 582.288 430.418 580.036 428.245L579.847 428.056L579.926 427.804C580.918 424.465 581.422 421.064 581.485 417.725V417.473L581.706 417.363C584.635 415.898 587.486 414.497 590.258 413.111L590.053 413.568C588.746 408.166 587.502 403.064 586.32 398.198L586.683 398.481C583.328 398.529 580.162 398.576 577.122 398.623H576.902L576.807 398.434C575.059 395.222 573.011 392.513 570.775 390.182L570.633 390.041L570.696 389.852C571.814 386.56 572.806 383.6 573.751 380.797L573.877 381.127C568.648 377.931 564.206 375.206 560.395 372.876L560.663 372.844C557.985 375.568 555.796 377.82 553.984 379.679L553.921 379.742L553.827 379.71C550.503 378.718 547.92 378.387 546.219 378.198C545.4 378.135 544.77 378.072 544.313 378.041C543.857 377.994 543.668 377.978 543.668 377.962C543.668 377.946 543.888 377.946 544.298 377.946C544.723 377.946 545.369 377.962 546.219 378.025C547.936 378.151 550.519 378.435 553.89 379.395L553.732 379.442C555.528 377.553 557.686 375.285 560.332 372.529L560.458 372.403L560.615 372.498C564.443 374.797 568.916 377.49 574.177 380.639L574.366 380.749L574.287 380.97C573.358 383.773 572.381 386.749 571.294 390.041L571.216 389.726C573.484 392.072 575.61 394.828 577.39 398.088L577.075 397.899C580.115 397.836 583.265 397.773 586.636 397.71H586.935L587.014 397.993C588.211 402.844 589.471 407.946 590.809 413.347L590.888 413.662L590.605 413.804C587.833 415.19 584.997 416.623 582.068 418.087L582.304 417.725C582.241 421.127 581.737 424.607 580.729 428.024L580.619 427.583C582.871 429.756 585.171 431.961 587.502 434.213L587.754 434.465L587.565 434.764C584.903 439.158 582.178 443.678 579.374 448.292L579.185 448.607L578.839 448.496C575.862 447.504 572.838 446.496 569.766 445.473L570.239 445.363C567.766 447.756 564.931 449.851 561.828 451.536L562.08 451.11C562.143 454.26 562.19 457.441 562.253 460.669V461.047L561.875 461.142C556.835 462.386 551.7 463.63 546.518 464.906L546.14 465L545.967 464.654C544.55 461.835 543.132 458.969 541.699 456.103L542.124 456.37H542.108C538.517 456.307 534.973 455.725 531.792 454.78L532.28 454.654C529.996 457.016 527.744 459.362 525.633 461.535L525.365 461.819L525.034 461.614C520.388 458.795 515.789 456.008 511.52 453.41L511.19 453.205L511.316 452.843C512.355 449.709 513.395 446.622 514.355 443.772L514.466 444.244C511.946 441.63 509.851 438.701 508.291 435.835L508.701 436.071C505.393 436.119 502.117 436.182 499.14 436.229H498.778L498.699 435.882C497.392 430.544 496.132 425.347 494.951 420.513L494.872 420.182L495.187 420.024C498.164 418.544 501.093 417.095 503.739 415.772L503.503 416.135C503.582 412.481 504.18 408.938 505.11 405.836L505.22 406.245C502.826 403.914 500.479 401.647 498.353 399.6L498.132 399.379L498.29 399.111C501.172 394.371 503.928 389.867 506.527 385.616L506.669 385.379L506.937 385.474C510.119 386.545 513.174 387.568 515.994 388.529L515.679 388.608C518.34 386.072 521.207 384.041 524.074 382.482L523.932 382.734C523.885 379.285 523.837 376.072 523.806 373.175V372.97L523.995 372.923C530.264 371.427 535.446 370.183 539.383 369.254L539.509 369.222L539.557 369.332C540.895 372.104 541.935 374.23 542.644 375.71C542.974 376.419 543.242 376.954 543.431 377.364C543.589 377.757 543.668 377.962 543.668 377.962Z" fill="#EBEBEB"/>
<path fill-rule="evenodd" clip-rule="evenodd" d="M84.5498 52.0936C90.4091 48.5819 96.6464 45.9205 103.073 44.1252L106.947 25.8421L137.882 25.4011L142.276 43.5741C148.75 45.1961 155.066 47.6685 161.02 51.0228L176.692 40.834L198.869 62.3926L189.119 78.3294C192.631 84.1875 195.293 90.4237 197.089 96.8488L215.375 100.723L215.816 131.651L197.64 136.045C196.018 142.517 193.545 148.816 190.19 154.785L200.381 170.454L178.818 192.627L162.878 182.879C157.019 186.391 150.782 189.052 144.355 190.847L140.481 209.13L109.546 209.571L105.152 191.398C98.6782 189.776 92.378 187.304 86.4084 183.95L70.7365 194.138L48.5595 172.58L58.3092 156.643C54.7967 150.785 52.1349 144.549 50.3393 138.124L32.0527 134.25L31.6117 103.321L49.788 98.9275C51.4103 92.4551 53.8832 86.156 57.2381 80.1876L47.0474 64.5186L68.6101 42.3615L84.5498 52.0936Z" fill="#ED1C24"/>
<path d="M141.961 108.376C141.819 108.392 142.008 105.982 140.969 101.872C140.481 99.8093 139.504 97.3842 137.976 94.8173C136.433 92.2504 134.212 89.589 131.203 87.3214C128.195 85.0852 124.415 83.1797 120.052 82.4081C115.721 81.6679 110.838 81.8096 106.176 83.5891C103.829 84.408 101.576 85.6363 99.4973 87.1796C98.4262 87.9198 97.4812 88.8331 96.5046 89.7308C95.6226 90.7071 94.6933 91.6677 93.9215 92.7858C90.6769 97.1007 88.8498 102.644 88.8025 108.36C88.8498 114.077 90.6769 119.636 93.9215 123.951C94.6933 125.069 95.6226 126.029 96.5046 127.006C97.4812 127.888 98.4262 128.817 99.4973 129.557C101.576 131.116 103.829 132.344 106.176 133.163C110.822 134.943 115.721 135.069 120.052 134.344C124.415 133.573 128.195 131.667 131.203 129.431C134.212 127.163 136.433 124.502 137.976 121.935C139.504 119.368 140.481 116.943 140.969 114.88C142.008 110.77 141.819 108.36 141.961 108.376C141.977 108.376 141.977 108.518 141.977 108.817C141.977 109.148 141.961 109.573 141.961 110.093C141.961 110.66 141.93 111.352 141.788 112.156C141.678 112.974 141.567 113.919 141.284 114.943C140.843 117.037 139.898 119.51 138.386 122.155C136.858 124.785 134.621 127.541 131.581 129.872C128.542 132.187 124.683 134.171 120.209 134.99C115.768 135.777 110.743 135.667 105.955 133.856C103.545 133.021 101.214 131.762 99.072 130.171C97.9695 129.415 96.9929 128.47 95.9849 127.557C95.0713 126.549 94.1105 125.557 93.323 124.407C89.9681 119.966 88.078 114.234 88.0308 108.345C88.078 102.455 89.9839 96.7228 93.323 92.2819C94.1105 91.1323 95.0713 90.1402 95.9849 89.1323C96.9929 88.219 97.9695 87.2741 99.072 86.5182C101.214 84.9277 103.545 83.6679 105.955 82.8332C110.743 81.038 115.768 80.912 120.209 81.6994C124.683 82.5183 128.542 84.5025 131.581 86.8174C134.637 89.1638 136.858 91.9197 138.386 94.5338C139.898 97.1637 140.843 99.6519 141.284 101.746C141.583 102.77 141.678 103.731 141.788 104.534C141.93 105.353 141.961 106.045 141.961 106.597C141.977 107.116 141.977 107.541 141.977 107.872C141.977 108.234 141.977 108.376 141.961 108.376Z" fill="white"/>
<path d="M133.519 127.888C133.676 127.73 139.52 133.305 146.545 140.328C153.585 147.368 159.161 153.194 159.004 153.352C158.846 153.509 153.003 147.935 145.978 140.895C138.937 133.872 133.361 128.045 133.519 127.888Z" fill="white"/>
<path fill-rule="evenodd" clip-rule="evenodd" d="M295.988 169.115C303.516 164.611 311.518 161.194 319.755 158.879L324.733 135.399L364.424 134.848L370.063 158.171C378.38 160.249 386.475 163.43 394.114 167.729L414.228 154.659L442.69 182.328L430.184 202.784C434.688 210.311 438.106 218.311 440.422 226.563L463.906 231.539L464.473 271.224L441.146 276.861C439.067 285.176 435.885 293.271 431.585 300.908L444.674 321.018L417 349.474L396.524 336.971C388.995 341.475 380.994 344.892 372.741 347.207L367.764 370.687L328.072 371.238L322.433 347.915C314.117 345.837 306.021 342.656 298.382 338.356L278.268 351.443L249.806 323.774L262.312 303.318C257.808 295.79 254.39 287.79 252.075 279.539L228.59 274.562L228.023 234.878L251.35 229.24C253.429 220.925 256.611 212.831 260.911 205.193L247.822 185.083L275.496 156.627L295.988 169.115Z" fill="#ED1C24"/>
<path d="M332.828 294.389C332.844 294.389 333.002 294.373 333.301 294.373C333.647 294.373 334.089 294.357 334.656 294.341C335.884 294.326 337.617 294.31 339.869 294.278C344.421 294.247 351.021 294.2 359.337 294.137L359.101 294.389C359.022 291.034 358.927 287.271 358.833 283.255V283.066L359.006 282.987C364.566 280.452 370.394 276.688 375.67 271.586C378.301 269.035 380.679 266.011 382.664 262.625C384.696 259.255 385.908 255.319 386.507 251.24C387.436 243.02 385.609 233.902 380.553 226.295C375.592 218.673 367.89 212.422 358.833 208.973C352.076 206.406 344.736 206.107 337.979 207.524C331.175 208.784 324.922 211.807 319.866 215.902C314.762 219.996 311.187 225.414 308.935 231.004C308.446 232.437 307.832 233.807 307.47 235.24C307.123 236.673 306.777 238.106 306.43 239.508C305.942 242.358 305.643 245.177 305.69 247.917C305.753 250.657 306.099 253.319 306.682 255.838C307.297 258.358 308.194 260.704 309.234 262.893C311.36 267.255 314.18 270.862 317.093 273.775C322.969 279.602 328.97 282.956 333.348 284.877L333.443 284.924V285.019C333.254 288.058 333.128 290.373 333.033 291.964C332.986 292.719 332.939 293.318 332.907 293.743C332.844 294.184 332.828 294.389 332.828 294.389C332.813 294.404 332.813 294.2 332.828 293.822C332.844 293.397 332.86 292.814 332.876 292.058C332.939 290.436 333.017 288.09 333.128 285.019L333.222 285.161C328.765 283.287 322.716 279.98 316.731 274.137C313.77 271.208 310.888 267.586 308.698 263.161C307.627 260.956 306.698 258.547 306.068 255.996C305.454 253.429 305.091 250.736 305.013 247.933C304.965 245.145 305.249 242.279 305.737 239.382C306.084 237.949 306.43 236.516 306.777 235.051C307.139 233.587 307.753 232.185 308.242 230.736C310.51 225.051 314.164 219.477 319.362 215.303C324.528 211.13 330.891 208.044 337.821 206.737C344.689 205.288 352.218 205.587 359.116 208.217C368.346 211.729 376.174 218.091 381.23 225.87C383.766 229.76 385.593 234.012 386.538 238.374C386.869 239.445 386.964 240.547 387.121 241.634C387.279 242.72 387.468 243.807 387.452 244.893C387.483 245.98 387.546 247.067 387.546 248.138C387.452 249.208 387.357 250.279 387.263 251.334C386.649 255.523 385.373 259.539 383.294 262.972C381.262 266.421 378.836 269.476 376.159 272.058C370.772 277.208 364.913 280.94 359.242 283.491L359.416 283.224C359.479 287.255 359.542 291.019 359.605 294.373V294.625H359.353C350.973 294.562 344.326 294.515 339.727 294.483C337.506 294.452 335.774 294.436 334.561 294.42C334.01 294.404 333.569 294.404 333.254 294.389C332.954 294.404 332.813 294.404 332.828 294.389Z" fill="white"/>
<path d="M359.731 301.759C359.731 301.979 353.635 302.168 346.106 302.168C338.577 302.168 332.482 301.995 332.482 301.759C332.482 301.538 338.577 301.349 346.106 301.349C353.619 301.365 359.731 301.538 359.731 301.759Z" fill="white"/>
<path d="M350.91 312.073C350.942 312.294 348.784 312.735 346.091 312.64C343.397 312.562 341.271 311.995 341.302 311.774C341.35 311.538 343.476 311.743 346.106 311.821C348.737 311.9 350.879 311.837 350.91 312.073Z" fill="white"/>
<path d="M338.373 294.389C338.357 294.389 338.357 294.231 338.341 293.932C338.341 293.586 338.341 293.16 338.341 292.609C338.357 291.397 338.388 289.696 338.42 287.538C338.53 283.082 338.672 276.735 338.861 268.909C338.971 264.972 339.081 260.673 339.207 256.043C339.239 254.925 339.16 253.744 338.751 252.704C338.404 251.649 337.396 250.893 336.357 251.114C335.317 251.319 334.561 252.389 334.246 253.492C333.915 254.61 334.151 255.854 334.687 256.956C335.774 259.177 338.215 260.673 340.783 261.003C343.381 261.381 346.075 260.216 347.87 258.169C349.697 256.153 350.753 253.366 350.847 250.547C350.894 249.145 350.737 247.681 350.012 246.516C349.351 245.382 347.87 244.642 346.673 245.082C345.476 245.523 344.878 247.067 345.082 248.358C345.271 249.712 346.091 250.941 346.973 252.059C348.737 254.295 350.957 256.216 353.541 257.13C354.816 257.586 356.187 257.775 357.494 257.602C358.801 257.397 360.046 256.893 361.085 256.106C362.125 255.334 362.96 254.295 363.338 253.114C363.731 251.933 363.684 250.641 363.133 249.571C362.597 248.5 361.573 247.697 360.439 247.744C359.321 247.76 358.266 248.515 357.62 249.429C356.313 251.366 356.313 253.901 355.966 256.153C355.462 260.736 355.131 265.035 354.848 268.956C354.328 276.751 353.887 283.098 353.588 287.538C353.446 289.68 353.336 291.381 353.241 292.593C353.194 293.129 353.163 293.57 353.131 293.901C353.1 294.2 353.084 294.341 353.068 294.341C353.052 294.341 353.052 294.184 353.052 293.885C353.052 293.538 353.068 293.113 353.084 292.562C353.131 291.349 353.194 289.649 353.273 287.491C353.462 283.098 353.761 276.735 354.265 268.877C354.533 264.956 354.816 260.657 355.289 256.043C355.431 254.893 355.541 253.728 355.746 252.515C355.95 251.319 356.265 250.075 357.037 248.972C357.793 247.917 358.975 247.004 360.439 246.956C361.904 246.893 363.212 247.949 363.81 249.177C364.472 250.421 364.535 251.964 364.078 253.303C363.637 254.657 362.708 255.822 361.558 256.673C360.424 257.539 359.053 258.106 357.604 258.326C356.139 258.531 354.659 258.311 353.273 257.822C350.485 256.83 348.17 254.815 346.327 252.5C345.429 251.35 344.515 250.027 344.263 248.421C344.027 246.846 344.689 244.941 346.39 244.264C348.107 243.665 349.871 244.657 350.705 246.027C351.556 247.429 351.698 249.035 351.666 250.515C351.556 253.523 350.438 256.468 348.469 258.641C346.547 260.846 343.539 262.153 340.688 261.712C337.9 261.334 335.238 259.728 334.025 257.224C333.443 256.011 333.159 254.547 333.553 253.224C333.931 251.964 334.781 250.641 336.246 250.326C336.955 250.185 337.695 250.374 338.262 250.783C338.845 251.193 339.207 251.791 339.428 252.374C339.885 253.571 339.948 254.815 339.916 255.98C339.759 260.594 339.617 264.909 339.475 268.846C339.176 276.657 338.94 283.003 338.782 287.46C338.688 289.617 338.609 291.302 338.546 292.515C338.514 293.05 338.483 293.491 338.467 293.838C338.404 294.247 338.388 294.389 338.373 294.389Z" fill="white"/>
<path d="M357.321 306.924C357.321 307.144 352.375 307.333 346.264 307.333C340.152 307.333 335.207 307.144 335.207 306.924C335.207 306.703 340.152 306.514 346.264 306.514C352.375 306.514 357.321 306.688 357.321 306.924Z" fill="white"/>
<path fill-rule="evenodd" clip-rule="evenodd" d="M556.678 232.484C561.513 229.476 566.663 227.193 572.003 225.602L574.996 210.327L600.748 209.556L604.638 224.626C610.057 225.886 615.333 227.87 620.342 230.579L633.257 221.886L652.001 239.555L644.094 252.956C647.102 257.791 649.386 262.94 650.977 268.279L666.255 271.271L667.027 297.019L651.954 300.908C650.694 306.326 648.709 311.601 646 316.609L654.694 329.522L637.022 348.262L623.618 340.356C618.783 343.364 613.632 345.648 608.293 347.238L605.3 362.514L579.548 363.285L575.657 348.215C570.239 346.955 564.962 344.971 559.954 342.262L547.038 350.955L528.295 333.286L536.202 319.884C533.193 315.05 530.909 309.9 529.319 304.562L514.04 301.57L513.269 275.822L528.342 271.932C529.602 266.515 531.587 261.24 534.296 256.232L525.601 243.319L543.258 224.579L556.678 232.484Z" fill="#ED1C24"/>
<path d="M624.658 314.121C624.658 314.152 624.232 314.184 623.413 314.199C622.515 314.215 621.318 314.247 619.838 314.278C616.64 314.31 612.167 314.357 606.67 314.404C595.472 314.436 580.146 314.483 563.214 314.53C562.159 314.53 561.103 314.53 560.111 314.53H559.702V314.121C559.749 297.885 559.796 283.334 559.828 272.736C559.875 267.539 559.922 263.318 559.954 260.295C559.985 258.893 560.017 257.775 560.032 256.925C560.064 256.153 560.08 255.759 560.111 255.759C560.143 255.759 560.158 256.169 560.19 256.925C560.206 257.775 560.237 258.893 560.269 260.295C560.3 263.303 560.347 267.539 560.395 272.736C560.426 283.334 560.473 297.885 560.521 314.121L560.111 313.711C561.088 313.711 562.143 313.711 563.214 313.711C580.146 313.758 595.472 313.806 606.67 313.837C612.167 313.884 616.64 313.932 619.838 313.963C621.334 313.995 622.531 314.026 623.413 314.042C624.232 314.058 624.658 314.089 624.658 314.121Z" fill="white"/>
<path d="M617.491 269.917C617.523 269.964 616.845 270.61 615.57 271.759C614.184 272.988 612.341 274.594 610.12 276.547C605.489 280.562 599.063 286.058 591.944 292.09L590.857 293.003L590.573 293.239L590.305 292.987C587.455 290.342 584.73 287.806 582.225 285.475L582.729 285.491C577.973 289.412 573.877 292.782 570.853 295.286C569.451 296.404 568.302 297.318 567.404 298.042C566.601 298.672 566.144 299.003 566.112 298.956C566.081 298.924 566.475 298.53 567.246 297.838C568.113 297.082 569.215 296.105 570.554 294.908C573.531 292.357 577.547 288.909 582.241 284.893L582.493 284.672L582.745 284.909C585.265 287.239 588.006 289.743 590.872 292.373L590.337 292.357L591.424 291.444C598.559 285.413 605.048 279.98 609.758 276.074C612.041 274.2 613.947 272.657 615.381 271.491C616.688 270.452 617.444 269.869 617.491 269.917Z" fill="white"/>
<path d="M617.491 283.444C617.381 283.444 617.286 281.917 617.207 279.413C617.129 276.924 617.081 273.46 617.081 269.602L617.491 270.011C617.27 270.011 617.034 270.011 616.798 270.011C612.782 270.011 609.143 269.964 606.513 269.885C603.882 269.806 602.26 269.712 602.26 269.602C602.26 269.492 603.882 269.381 606.513 269.318C609.143 269.24 612.782 269.192 616.798 269.192C617.034 269.192 617.27 269.192 617.491 269.192H617.9V269.602C617.9 273.46 617.853 276.924 617.774 279.413C617.696 281.917 617.601 283.444 617.491 283.444Z" fill="white"/>
<path d="M200.853 316.373C200.633 316.451 199.814 314.483 199.026 311.995C198.223 309.507 197.766 307.428 197.987 307.365C198.207 307.302 199.026 309.255 199.814 311.743C200.601 314.231 201.058 316.294 200.853 316.373Z" fill="#263238"/>
<path d="M217.565 350.073C217.391 350.199 214.856 346.782 212.257 342.262C209.642 337.727 207.973 333.837 208.162 333.742C208.366 333.632 210.367 337.349 212.965 341.852C215.549 346.341 217.754 349.947 217.565 350.073Z" fill="#263238"/>
<path d="M242.152 378.529C242.01 378.702 238.702 376.041 235.032 372.309C231.362 368.576 228.779 365.222 228.937 365.08C229.11 364.923 231.977 368.025 235.615 371.726C239.253 375.442 242.293 378.356 242.152 378.529Z" fill="#263238"/>
<path d="M273.291 399.615C273.196 399.82 269.29 398.151 264.785 395.505C260.265 392.875 256.878 390.308 257.004 390.135C257.13 389.946 260.706 392.198 265.195 394.796C269.684 397.411 273.401 399.395 273.291 399.615Z" fill="#263238"/>
<path d="M309.061 411.143C309.029 411.363 304.839 410.733 299.72 409.662C294.696 408.245 290.664 406.922 290.743 406.702C290.821 406.481 294.917 407.458 299.91 408.859C304.997 409.93 309.092 410.906 309.061 411.143Z" fill="#263238"/>
<path d="M346.657 411.977C346.689 412.198 342.499 412.859 337.27 413.095C332.041 413.332 327.82 413.032 327.82 412.812C327.82 412.576 332.041 412.513 337.223 412.277C342.42 412.04 346.626 411.741 346.657 411.977Z" fill="#263238"/>
<path d="M383.404 403.851C383.483 404.056 379.545 405.631 374.505 407.033C369.48 408.45 365.291 409.143 365.243 408.938C365.196 408.718 369.276 407.662 374.284 406.245C379.293 404.844 383.325 403.631 383.404 403.851Z" fill="#263238"/>
<path d="M417.489 387.883C417.599 388.072 414.118 390.482 409.519 392.954C404.92 395.426 400.982 397.017 400.903 396.828C400.809 396.623 404.557 394.702 409.141 392.245C413.708 389.773 417.363 387.694 417.489 387.883Z" fill="#263238"/>
<path d="M446.722 364.23C446.879 364.372 444.154 367.632 440.311 371.175C436.468 374.734 433.034 377.206 432.893 377.033C432.751 376.844 435.948 374.104 439.76 370.576C443.572 367.049 446.549 364.073 446.722 364.23Z" fill="#263238"/>
<path d="M467.529 332.971C467.718 333.049 466.174 337.002 463.654 341.585C461.15 346.183 458.614 349.585 458.425 349.459C458.236 349.333 460.441 345.742 462.929 341.191C465.418 336.64 467.308 332.861 467.529 332.971Z" fill="#263238"/>
<path d="M480.428 297.57C480.649 297.633 479.499 301.711 477.877 306.656C476.254 311.601 474.758 315.554 474.538 315.475C474.317 315.396 475.467 311.333 477.089 306.389C478.727 301.444 480.224 297.491 480.428 297.57Z" fill="#263238"/>
<path d="M492.493 261.854C492.745 261.948 491.28 265.917 489.595 270.83C487.894 275.743 486.335 279.665 486.114 279.602C485.894 279.539 487.107 275.491 488.823 270.562C489.642 268.09 490.556 265.917 491.233 264.342C491.911 262.751 492.383 261.807 492.493 261.854Z" fill="#263238"/>
<path d="M509.205 228.106C509.394 228.232 507.252 231.854 504.748 236.405C502.227 240.941 500.259 244.673 500.038 244.579C499.833 244.484 501.487 240.579 504.023 236.012C506.559 231.445 509.016 227.996 509.205 228.106Z" fill="#263238"/>
<path d="M534.359 200.28C534.501 200.469 531.193 203.083 527.397 206.611C523.585 210.122 520.703 213.209 520.53 213.051C520.372 212.91 523.002 209.571 526.846 206.012C530.673 202.438 534.233 200.107 534.359 200.28Z" fill="#263238"/>
<path d="M568.317 184.375C568.38 184.611 564.348 185.839 559.465 187.587C554.583 189.335 550.692 190.973 550.598 190.753C550.503 190.564 554.268 188.579 559.198 186.816C564.112 185.052 568.254 184.17 568.317 184.375Z" fill="#263238"/>
<path d="M605.647 180.217C605.631 180.454 601.425 180.343 596.228 180.532C591.046 180.706 586.84 181.052 586.809 180.816C586.777 180.595 590.967 179.887 596.196 179.714C601.441 179.525 605.662 179.997 605.647 180.217Z" fill="#263238"/>
<path d="M641.983 189.509C641.889 189.729 637.967 188.17 633.084 186.438C628.202 184.69 624.169 183.446 624.232 183.209C624.28 183.005 628.438 183.902 633.368 185.666C638.282 187.398 642.078 189.304 641.983 189.509Z" fill="#263238"/>
<path d="M674.052 209.115C673.895 209.288 670.587 206.689 666.35 203.682C662.129 200.674 658.585 198.359 658.711 198.17C658.821 197.981 662.57 199.981 666.822 203.02C671.107 206.044 674.21 208.941 674.052 209.115Z" fill="#263238"/>
<path d="M692.984 230.012C692.795 230.138 691.504 228.469 689.96 226.39C688.416 224.295 687.204 222.579 687.377 222.421C687.55 222.28 689.062 223.791 690.622 225.902C692.165 227.996 693.173 229.886 692.984 230.012Z" fill="#263238"/>
<path d="M0 94.9905C0 94.9905 0.0787536 94.5023 0.299264 93.5574C0.519774 92.5968 0.834788 91.211 1.24431 89.3843C2.12635 85.7308 3.74867 80.408 6.48929 73.8097C9.38743 67.2902 13.4826 59.495 19.5309 51.3377C25.5634 43.1803 33.5018 34.645 43.5665 26.7397C53.7099 18.9918 65.9167 11.732 80.1869 6.92897C87.322 4.55105 94.8823 2.64557 102.821 1.46449C110.743 0.330651 119.012 -0.189025 127.455 0.0314437C135.913 0.236165 144.56 1.29127 153.191 3.29123C161.823 5.27545 170.438 8.20453 178.692 12.299C186.945 16.3776 194.773 21.6689 202.019 27.8263C209.248 33.9994 215.848 41.1489 221.376 49.196C226.921 57.2431 231.252 65.9673 234.355 74.9593C237.458 83.9513 239.332 93.1952 240.261 102.345C240.435 104.644 240.687 106.927 240.781 109.195C240.828 111.478 240.891 113.746 240.939 115.998C240.97 118.25 240.813 120.502 240.765 122.738C240.561 124.974 240.419 127.195 240.12 129.384C238.97 138.171 236.591 146.596 233.347 154.407C230.086 162.218 226.149 169.477 222.164 176.406C218.116 183.304 214.194 189.997 210.414 196.469C202.853 209.429 198.9 223.02 196.663 235.524C195.545 241.791 194.836 247.823 194.427 253.539C193.986 259.255 193.813 264.673 193.781 269.728C193.781 279.854 193.907 288.594 195.01 295.633C196.049 302.688 197.482 308.042 198.601 311.617C199.184 313.396 199.672 314.751 200.034 315.632C200.207 316.089 200.365 316.404 200.459 316.64C200.554 316.861 200.585 316.987 200.585 316.987C200.585 316.987 199.64 315.239 198.443 311.68C197.262 308.121 195.781 302.751 194.679 295.68C193.529 288.609 193.356 279.854 193.309 269.728C193.309 264.657 193.482 259.24 193.891 253.492C194.285 247.76 194.962 241.697 196.065 235.413C198.27 222.862 202.208 209.178 209.784 196.123C213.564 189.65 217.47 182.942 221.502 176.044C225.471 169.115 229.393 161.887 232.622 154.123C235.82 146.36 238.167 137.998 239.316 129.273C239.6 127.1 239.742 124.88 239.946 122.675C239.994 120.455 240.135 118.218 240.12 115.982C240.072 113.73 240.009 111.478 239.962 109.211C239.852 106.943 239.6 104.675 239.442 102.408C238.513 93.3055 236.654 84.1245 233.567 75.2113C230.496 66.2823 226.196 57.6368 220.683 49.6527C215.186 41.6685 208.65 34.5663 201.467 28.4404C194.269 22.3303 186.504 17.0705 178.314 13.0234C170.123 8.96043 161.555 6.04709 152.987 4.06287C144.418 2.06291 135.818 1.00781 127.408 0.803084C118.997 0.566868 110.791 1.0708 102.899 2.18889C95.0083 3.35422 87.4795 5.24395 80.3917 7.59037C66.1845 12.3462 54.025 19.5272 43.8972 27.2278C33.864 35.0545 25.9099 43.5425 19.8774 51.6369C13.8134 59.7312 9.70244 67.4791 6.77281 73.9515C4.00068 80.5183 2.33111 85.8095 1.40181 89.4315C0.960794 91.2425 0.614278 92.6283 0.378017 93.5732C0.141756 94.518 0 94.9905 0 94.9905Z" fill="#263238"/>
</g>
<defs>
<clipPath id="clip0_64_373">
<rect width="693" height="465" fill="white"/>
</clipPath>
</defs>
</svg>
