<svg width="470" height="495" viewBox="0 0 470 495" fill="none" xmlns="http://www.w3.org/2000/svg">
<path d="M284.483 247.5C284.483 144.539 248.431 56.2896 197.161 18.9904V0L149.943 0.321868C147.498 0.113598 145.054 0 142.565 0C64.2065 0 0.669434 110.799 0.669434 247.5C0.669434 384.201 64.2065 495 142.565 495C145.032 495 147.498 494.886 149.943 494.678L197.161 495V476.01C248.453 438.71 284.483 350.461 284.483 247.5Z" fill="#ED1C24"/>
<path d="M197.161 495C275.528 495 339.057 384.191 339.057 247.5C339.057 110.81 275.528 0 197.161 0C118.794 0 55.265 110.81 55.265 247.5C55.265 384.191 118.794 495 197.161 495Z" fill="#F9626D"/>
<path d="M202.182 431.307C257.609 431.307 302.542 349.014 302.542 247.5C302.542 145.986 257.609 63.6926 202.182 63.6926C146.755 63.6926 101.822 145.986 101.822 247.5C101.822 349.014 146.755 431.307 202.182 431.307Z" fill="white"/>
<path d="M202.182 431.299C257.609 431.299 302.542 349.005 302.542 247.491C302.542 145.977 257.609 63.6837 202.182 63.6837C146.755 63.6837 101.822 145.977 101.822 247.491C101.822 349.005 146.755 431.299 202.182 431.299Z" fill="white"/>
<path d="M206.939 365.513C239.609 365.513 266.094 312.677 266.094 247.5C266.094 182.323 239.609 129.487 206.939 129.487C174.269 129.487 147.785 182.323 147.785 247.5C147.785 312.677 174.269 365.513 206.939 365.513Z" fill="#F9626D"/>
<path d="M209.89 296.5C221.822 296.5 231.495 274.562 231.495 247.5C231.495 220.438 221.822 198.5 209.89 198.5C197.958 198.5 188.286 220.438 188.286 247.5C188.286 274.562 197.958 296.5 209.89 296.5Z" fill="white"/>
<path opacity="0.7" d="M197.161 495C201.455 495 205.684 494.64 209.868 493.997V242.767L90.5023 410.727C116.534 462.377 154.656 495 197.161 495Z" fill="#F9626D"/>
<path d="M467.43 242.767H209.89V252.233H467.43V242.767Z" fill="#2C698D"/>
<path d="M211.983 247.5C211.983 250.113 211.058 252.233 209.89 252.233C208.745 252.233 207.798 250.113 207.798 247.5C207.798 244.887 208.723 242.767 209.89 242.767C211.036 242.767 211.983 244.887 211.983 247.5Z" fill="#2C698D"/>
<path d="M467.408 252.233C468.563 252.233 469.5 250.114 469.5 247.5C469.5 244.886 468.563 242.767 467.408 242.767C466.253 242.767 465.316 244.886 465.316 247.5C465.316 250.114 466.253 252.233 467.408 252.233Z" fill="#2C698D"/>
<path d="M396.934 242.767C396.934 242.767 441.905 210.901 463.554 216.032C476.702 219.156 462.409 242.767 462.409 242.767H396.934Z" fill="#272643"/>
<path d="M396.934 252.233C396.934 252.233 441.905 284.837 463.554 279.592C476.702 276.412 462.409 252.233 462.409 252.233H396.934Z" fill="#272643"/>
<path d="M397.132 247.5C397.132 247.5 442.103 275.597 463.752 271.072C476.9 268.327 462.607 247.5 462.607 247.5H397.132Z" fill="#BAE8E8"/>
<path d="M217.004 245.607H234.777" stroke="white" stroke-width="0.75" stroke-miterlimit="10" stroke-linecap="round" stroke-linejoin="round"/>
<path d="M211.917 245.607H213.194" stroke="white" stroke-width="0.75" stroke-miterlimit="10" stroke-linecap="round" stroke-linejoin="round"/>
</svg>
